<svg xmlns="http://www.w3.org/2000/svg" width="33" height="33" viewBox="0 0 33 33" fill="none">
<path d="M32.5 2.16769V10.0069C32.5 10.928 31.7533 11.6747 30.8323 11.6747C29.9113 11.6747 29.1645 10.928 29.1645 10.0069V6.19404L21.5272 13.8313C21.3725 13.9864 21.1887 14.1094 20.9863 14.1932C20.784 14.2771 20.567 14.3201 20.348 14.3198C20.1289 14.3201 19.912 14.2771 19.7096 14.1933C19.5072 14.1094 19.3234 13.9864 19.1687 13.8313C18.5174 13.18 18.5174 12.124 19.1687 11.4728L26.806 3.83543H22.993C22.072 3.83543 21.3253 3.0888 21.3253 2.16769C21.3253 1.24657 22.072 0.499939 22.993 0.499939H30.8323C31.7534 0.499939 32.5 1.24657 32.5 2.16769ZM11.473 19.1687L3.83562 26.806V22.9929C3.83562 22.0718 3.08888 21.3252 2.16787 21.3252C1.24686 21.3252 0.500122 22.0718 0.500122 22.9929V30.8322C0.500122 31.7533 1.24686 32.4999 2.16787 32.4999H10.0071C10.9281 32.4999 11.6749 31.7533 11.6749 30.8322C11.6749 29.9111 10.9281 29.1644 10.0071 29.1644H6.19412L13.8315 21.5271C14.4828 20.8758 14.4828 19.8198 13.8315 19.1686C13.1802 18.5173 12.1242 18.5173 11.473 19.1687Z" fill="#161A19" fill-opacity="0.4"/>
</svg>