<svg width="40" height="40" viewBox="0 0 40 40" fill="none" xmlns="http://www.w3.org/2000/svg">
<g clip-path="url(#clip0_755_8525)">
<path d="M36.1334 19.3468C35.6707 19.2565 35.2066 19.1733 34.7414 19.0974C31.608 18.5641 27.7047 17.9081 19.778 12.8254C19.463 12.4796 19.1013 12.1794 18.7034 11.9334L16.2327 9.30545C16.0081 9.06688 15.7288 8.88657 15.4189 8.78006C15.109 8.67355 14.7778 8.64406 14.454 8.69411C14.1419 8.73844 13.8455 8.85894 13.591 9.04497C13.3365 9.231 13.1317 9.47684 12.9947 9.76078C12.6403 10.4096 12.4735 11.1442 12.5129 11.8825C12.5523 12.6207 12.7965 13.3334 13.218 13.9408C12.8095 14.5819 12.2499 15.113 11.5883 15.4875C10.9267 15.862 10.1833 16.0685 9.42335 16.0888C8.64043 16.0345 7.88395 15.7831 7.22424 15.358C6.56453 14.9329 6.02301 14.348 5.65002 13.6574C4.97269 12.5294 4.22935 11.5241 3.36202 11.7588C2.41135 12.0221 2.41135 13.4254 2.41135 14.6674C2.4773 16.3824 2.26867 18.097 1.79335 19.7461L0.286021 22.7614C0.0481054 23.2339 -0.0434556 23.7666 0.0230497 24.2914C0.089555 24.8162 0.311103 25.3093 0.659354 25.7074C1.66669 26.8288 3.82069 28.2521 8.41135 28.6668H28.9094C30.26 28.6698 31.6031 28.4647 32.8914 28.0588C34.9887 27.3934 40 25.5374 40 23.3334C40 22.2221 39.1914 19.9588 36.1334 19.3468ZM14.1934 10.3441C14.2367 10.2546 14.3016 10.1773 14.3823 10.1191C14.4629 10.0609 14.5568 10.0237 14.6554 10.0108C14.7655 9.99358 14.8783 10.0034 14.9838 10.0394C15.0894 10.0754 15.1846 10.1365 15.2614 10.2174L16.382 11.4088C15.4775 11.5888 14.6652 12.0813 14.0874 12.8001C13.9094 12.4116 13.8263 11.9863 13.8447 11.5594C13.8631 11.1324 13.9826 10.7159 14.1934 10.3441ZM3.74469 14.6668C3.73792 14.2157 3.75639 13.7645 3.80002 13.3154C4.0624 13.6389 4.2987 13.9826 4.50669 14.3434C4.99478 15.2273 5.69881 15.973 6.5531 16.5112C7.40739 17.0493 8.38407 17.3622 9.39202 17.4208H9.51602C11.4547 17.4208 13.2394 16.3408 14.5547 14.3681C15.2694 13.2961 16.0174 12.7341 16.7794 12.7014C17.4516 12.7182 18.09 13 18.5554 13.4854L17.4667 14.9334C17.3606 15.0749 17.3151 15.2527 17.3401 15.4277C17.3651 15.6028 17.4586 15.7607 17.6 15.8668C17.7415 15.9729 17.9193 16.0184 18.0943 15.9934C18.2693 15.9684 18.4273 15.8749 18.5334 15.7334L19.6127 14.2954C20.082 14.591 20.5385 14.8719 20.982 15.1381L20.1334 16.2668C20.0808 16.3368 20.0426 16.4165 20.0209 16.5013C19.9992 16.5861 19.9943 16.6744 20.0067 16.7611C20.0191 16.8477 20.0484 16.9311 20.093 17.0064C20.1376 17.0818 20.1966 17.1476 20.2667 17.2001C20.3367 17.2526 20.4164 17.2909 20.5012 17.3126C20.586 17.3343 20.6743 17.3391 20.761 17.3267C20.8476 17.3144 20.931 17.285 21.0063 17.2404C21.0817 17.1958 21.1475 17.1368 21.2 17.0668L22.1394 15.8181C22.626 16.0968 23.0947 16.3561 23.5494 16.5994L22.8 17.6001C22.6939 17.7416 22.6484 17.9194 22.6734 18.0944C22.6984 18.2694 22.7919 18.4274 22.9334 18.5334C23.0748 18.6395 23.2526 18.6851 23.4276 18.6601C23.6027 18.6351 23.7606 18.5416 23.8667 18.4001L24.748 17.2228C25.2607 17.4801 25.7514 17.7134 26.2227 17.9281L25.4667 18.9334C25.3606 19.0749 25.3151 19.2527 25.3401 19.4277C25.3651 19.6028 25.4586 19.7607 25.6 19.8668C25.7415 19.9729 25.9193 20.0184 26.0943 19.9934C26.2693 19.9684 26.4273 19.8749 26.5334 19.7334L27.4814 18.4728C29.7383 19.4052 32.1014 20.0564 34.5174 20.4114C34.984 20.4908 35.434 20.5661 35.87 20.6528C36.3587 20.7166 36.8278 20.885 37.2456 21.1465C37.6633 21.408 38.0197 21.7565 38.2907 22.1681C35.838 23.5994 31.9834 24.8274 26.85 23.3588C19.1527 21.1588 16.7047 21.6428 13.6027 22.2541C12.8727 22.3988 12.118 22.5474 11.24 22.6728C8.05869 23.1288 4.44402 21.5521 2.80002 20.7141C2.85535 20.4408 3.74469 19.7808 3.74469 14.6668ZM32.4874 26.7881C31.3298 27.1527 30.123 27.3366 28.9094 27.3334H8.47202C4.37269 26.9608 2.50002 25.7574 1.65202 24.8134C1.48115 24.6152 1.37337 24.3705 1.34249 24.1106C1.31161 23.8507 1.35903 23.5875 1.47869 23.3548L2.20335 21.9048C4.14335 22.8981 7.92002 24.4908 11.428 23.9908C12.3407 23.8574 13.1134 23.7074 13.86 23.5608C16.9014 22.9608 19.096 22.5281 26.4834 24.6381C28.0752 25.1049 29.7245 25.3463 31.3834 25.3554C33.8698 25.3652 36.319 24.7511 38.5067 23.5694C37.8594 24.6001 35.6827 25.7741 32.4874 26.7881Z" fill="white"/>
</g>
<defs>
<clipPath id="clip0_755_8525">
<rect width="40" height="40" fill="white"/>
</clipPath>
</defs>
</svg>
