<svg xmlns="http://www.w3.org/2000/svg" width="50" height="50" viewBox="0 0 50 50" fill="none">
<path fill-rule="evenodd" clip-rule="evenodd" d="M41.6017 2.23266C42.1347 2.22094 42.6648 2.31587 43.1606 2.5119C43.6583 2.70864 44.1114 3.0032 44.4932 3.37814C44.8749 3.75309 45.1776 4.20081 45.3833 4.69483C45.589 5.18884 45.6935 5.71908 45.6906 6.25418L45.6904 6.27482C45.6094 11.3576 45.0725 19.5907 41.1892 26.5947C39.2278 30.1322 36.4037 33.3744 32.361 35.7212C28.3209 38.0665 23.1751 39.4531 16.6667 39.4531C15.588 39.4531 14.7136 38.5786 14.7136 37.5C14.7136 36.4213 15.588 35.5468 16.6667 35.5468C22.6104 35.5468 27.0544 34.285 30.3999 32.3429C33.7426 30.4024 36.0996 27.7185 37.7729 24.7005C41.155 18.6005 41.704 11.2153 41.7844 6.22956C41.784 6.21813 41.7816 6.20686 41.7772 6.1963C41.7723 6.1846 41.7651 6.17399 41.7561 6.1651C41.747 6.15622 41.7363 6.14924 41.7245 6.14458C41.7127 6.13992 41.7001 6.13767 41.6874 6.13797L41.6776 6.13817C24.2264 6.45868 16.1659 10.8414 12.2732 16.3929C8.26685 22.1064 8.20317 29.5975 8.20317 37.5V45.8333C8.20317 46.912 7.32872 47.7864 6.25004 47.7864C5.17136 47.7864 4.29692 46.912 4.29692 45.8333V37.5C4.29692 37.4027 4.29691 37.3053 4.2969 37.2076C4.29609 29.6703 4.29516 20.9667 9.07484 14.1502C14.0297 7.08407 23.6638 2.56277 41.6017 2.23266Z" fill="#00A351"/>
<path fill-rule="evenodd" clip-rule="evenodd" d="M24.8547 22.6743C24.9885 23.7447 24.2293 24.7208 23.1589 24.8546C15.3753 25.8276 11.7499 29.1642 9.99673 32.0131C9.09492 33.4786 8.64391 34.8888 8.41943 35.927C8.30752 36.4446 8.25327 36.8635 8.22708 37.1418C8.21402 37.2806 8.20802 37.3836 8.20529 37.4453C8.20393 37.4761 8.20339 37.4965 8.20318 37.5059C8.20314 37.5079 8.20311 37.5094 8.2031 37.5104C8.19747 38.5842 7.3252 39.453 6.25 39.453C5.17132 39.453 4.29688 38.5786 4.29688 37.4999H6.25C4.29688 37.4999 4.29688 37.4986 4.29688 37.4972L4.29688 37.4942L4.29691 37.4874L4.29705 37.4702C4.29718 37.4572 4.29742 37.4412 4.29783 37.4221C4.29865 37.384 4.30014 37.334 4.30285 37.2728C4.30826 37.1504 4.31854 36.9827 4.33802 36.7757C4.37694 36.3622 4.45289 35.7884 4.6014 35.1015C4.89776 33.7308 5.48842 31.8858 6.66994 29.9659C9.08341 26.044 13.7914 22.0889 22.6744 20.9785C23.7448 20.8448 24.7209 21.604 24.8547 22.6743Z" fill="#00A351"/>
</svg>