<svg width="40" height="40" viewBox="0 0 40 40" fill="none" xmlns="http://www.w3.org/2000/svg">
<g clip-path="url(#clip0_755_8509)">
<path d="M39.6567 27.4521L36.5585 24.3538V13.7263L38.5812 12.9971C38.808 12.9155 39.004 12.7659 39.1426 12.5688C39.2813 12.3717 39.3557 12.1366 39.3559 11.8956C39.3561 11.6546 39.2819 11.4195 39.1436 11.2221C39.0052 11.0248 38.8094 10.875 38.5828 10.793L20.0767 4.09101C19.8189 3.99766 19.5366 3.99766 19.2788 4.09101L0.772805 10.793C0.547144 10.8748 0.352041 11.0239 0.213873 11.2202C0.0757058 11.4165 0.00113828 11.6504 0.000252131 11.8905C-0.000634015 12.1305 0.0722039 12.365 0.208918 12.5623C0.345633 12.7596 0.53963 12.9101 0.764681 12.9936L7.59442 15.5236V23.246C7.59442 23.4856 7.66785 23.7196 7.80494 23.9161C7.88033 24.0243 8.5944 24.9994 10.4227 25.9196C12.7324 27.0823 15.7618 27.6719 19.4266 27.6719C23.0887 27.6719 26.1334 27.0836 28.4761 25.9231C30.3224 25.0086 31.0602 24.0436 31.1383 23.9367C31.2846 23.7361 31.3634 23.4943 31.3634 23.2461V15.5992L34.2151 14.5711V24.3538L31.1168 27.4521C30.8971 27.6718 30.7736 27.9698 30.7736 28.2806C30.7736 28.5913 30.8971 28.8893 31.1168 29.1091L34.2151 32.2073V34.8068C34.2151 35.4539 34.7397 35.9786 35.3868 35.9786C36.034 35.9786 36.5586 35.4539 36.5586 34.8068V32.2073L39.6568 29.1091C40.1144 28.6516 40.1144 27.9096 39.6567 27.4521ZM19.6778 6.43899L34.7358 11.8923L19.4321 17.4097L4.57854 11.9072L19.6778 6.43899ZM29.0198 22.779C25.014 26.3835 13.1106 25.9702 9.93794 22.7907V16.3918L19.0195 19.756C19.1636 19.7788 19.2997 19.9031 19.824 19.7596L29.0199 16.4443L29.0198 22.779ZM35.3868 30.0649L33.6023 28.2806L35.3868 26.4961L37.1711 28.2806L35.3868 30.0649Z" fill="white"/>
</g>
<defs>
<clipPath id="clip0_755_8509">
<rect width="40" height="40" fill="white"/>
</clipPath>
</defs>
</svg>
