<svg width="40" height="40" viewBox="0 0 40 40" fill="none" xmlns="http://www.w3.org/2000/svg">
<path d="M34.5227 18.963C34.5227 27.5566 27.5562 34.5923 18.9626 34.5923C10.369 34.5923 3.33331 27.5566 3.33331 18.963C3.33331 10.3694 10.369 3.33375 18.9626 3.33375C27.5562 3.33375 34.5227 10.3694 34.5227 18.963Z" stroke="white" stroke-width="1.5" stroke-miterlimit="10" stroke-linecap="round" stroke-linejoin="round"/>
<path d="M12.0326 13.4392C13.6673 13.9703 14.5618 15.7259 14.0307 17.3605C13.4996 18.9951 11.7439 19.8897 10.1093 19.3586C8.4747 18.8274 7.58017 17.0718 8.11129 15.4372C8.64241 13.8026 10.3981 12.908 12.0326 13.4392Z" stroke="white" stroke-width="1.5" stroke-miterlimit="10" stroke-linecap="round" stroke-linejoin="round"/>
<path d="M11.5668 23.8471C12.577 22.4567 14.5232 22.1485 15.9137 23.1586C17.3041 24.1689 17.6123 26.115 16.6022 27.5055C15.5919 28.896 13.6458 29.2042 12.2553 28.194C10.8648 27.1838 10.5566 25.2376 11.5668 23.8471Z" stroke="white" stroke-width="1.5" stroke-miterlimit="10" stroke-linecap="round" stroke-linejoin="round"/>
<path d="M21.3236 27.5055C20.3133 26.1151 20.6216 24.1689 22.0121 23.1587C23.4025 22.1484 25.3487 22.4567 26.359 23.8472C27.3692 25.2376 27.0609 27.1838 25.6704 28.1941C24.28 29.2042 22.3338 28.896 21.3236 27.5055Z" stroke="white" stroke-width="1.5" stroke-miterlimit="10" stroke-linecap="round" stroke-linejoin="round"/>
<path d="M27.8176 19.3586C26.183 19.8897 24.4274 18.9951 23.8962 17.3605C23.3651 15.7259 24.2597 13.9703 25.8942 13.4391C27.5289 12.908 29.2845 13.8026 29.8156 15.4372C30.3468 17.0718 29.4522 18.8274 27.8176 19.3586Z" stroke="white" stroke-width="1.5" stroke-miterlimit="10" stroke-linecap="round" stroke-linejoin="round"/>
<path d="M22.0746 10.6639C22.0746 12.3826 20.6813 13.7759 18.9626 13.7759C17.2439 13.7759 15.8506 12.3826 15.8506 10.6639C15.8506 8.94512 17.2439 7.55183 18.9626 7.55183C20.6813 7.55183 22.0746 8.94512 22.0746 10.6639Z" stroke="white" stroke-width="1.5" stroke-miterlimit="10" stroke-linecap="round" stroke-linejoin="round"/>
<path d="M20 18.9627C20 19.5355 19.5355 20 18.9626 20C18.3897 20 17.9253 19.5355 17.9253 18.9627C17.9253 18.3898 18.3897 17.9253 18.9626 17.9253C19.5355 17.9253 20 18.3898 20 18.9627Z" stroke="white" stroke-width="1.5"/>
<path d="M18.9626 34.5923H27.809C30.8598 34.5923 33.9378 35.3026 36.6666 36.667" stroke="white" stroke-width="1.5" stroke-miterlimit="10" stroke-linecap="round" stroke-linejoin="round"/>
</svg>
