<svg xmlns="http://www.w3.org/2000/svg" width="41" height="44" viewBox="0 0 41 44" fill="none">
<path fill-rule="evenodd" clip-rule="evenodd" d="M14.296 4.04707C14.4482 4.48597 14.2147 4.96336 13.7834 5.13596C7.1202 7.8026 2.41515 14.319 2.41515 21.9322C2.41515 29.5455 7.1202 36.0619 13.7834 38.7285C14.2147 38.9011 14.4482 39.3785 14.296 39.8174C14.1438 40.2563 13.6637 40.4904 13.2317 40.3195C5.91214 37.424 0.73291 30.284 0.73291 21.9322C0.73291 13.5805 5.91214 6.44044 13.2317 3.54498C13.6637 3.37411 14.1438 3.60818 14.296 4.04707ZM38.5834 21.9322C38.5834 14.3944 33.9711 7.93179 27.4124 5.21629C26.9832 5.03859 26.7554 4.55845 26.9128 4.1214C27.0702 3.68434 27.5531 3.45599 27.983 3.63198C35.1881 6.58148 40.2656 13.6629 40.2656 21.9322C40.2656 30.2016 35.1881 37.283 27.983 40.2325C27.5531 40.4085 27.0702 40.1801 26.9128 39.7431C26.7554 39.306 26.9832 38.8259 27.4124 38.6482C33.9711 35.9327 38.5834 29.4701 38.5834 21.9322Z" fill="#006422"/>
<path d="M21.5081 5.44602C21.8449 5.04002 22.3281 4.68736 22.8331 4.84C23.2909 4.97838 23.5778 5.45983 23.362 5.88661C23.2827 6.04329 23.1928 6.18718 23.0921 6.31826C22.839 6.64792 22.5241 6.89663 22.1473 7.06441C21.7735 7.23218 21.2967 7.31606 20.7168 7.31606C20.0134 7.31606 19.4379 7.21452 18.9905 7.01143C18.5461 6.80539 18.162 6.44483 17.8382 5.92973C17.5144 5.41464 17.3525 4.75533 17.3525 3.95178C17.3525 2.88039 17.6366 2.05772 18.2046 1.48376C18.7757 0.906859 19.5821 0.618408 20.6241 0.618408C21.4394 0.618408 22.0796 0.783237 22.5447 1.1129C22.7799 1.27858 22.9846 1.48887 23.1588 1.74377C23.4574 2.18054 23.1379 2.73152 22.6215 2.84643L22.2855 2.92118C22.0226 2.97967 21.7868 2.80823 21.6263 2.59194C21.5145 2.43889 21.3776 2.32115 21.2157 2.23874C21.0538 2.15632 20.8728 2.11512 20.6727 2.11512C20.2194 2.11512 19.8721 2.29761 19.6307 2.66258C19.4482 2.93338 19.357 3.35869 19.357 3.93854C19.357 4.65672 19.4659 5.14974 19.6837 5.41759C19.9015 5.68249 20.2076 5.81494 20.602 5.81494C20.9847 5.81494 21.2731 5.70751 21.4674 5.49264C21.4812 5.47758 21.4948 5.46204 21.5081 5.44602Z" fill="#006422"/>
<path d="M18.3405 38.9564C18.5425 38.9564 18.7146 38.8153 18.7762 38.6229C18.9721 38.0107 19.3055 37.5317 19.7765 37.1859C20.3299 36.7798 21.0451 36.5767 21.9222 36.5767C23.0025 36.5767 23.8325 36.8651 24.4123 37.442C24.9951 38.0189 25.2865 38.8313 25.2865 39.8791C25.2865 40.9711 24.9995 41.81 24.4256 42.3957C23.8516 42.9785 23.0451 43.2699 22.0061 43.2699C20.9141 43.2699 20.1003 43.0109 19.5646 42.4928C19.1071 42.048 18.8117 41.5097 18.6784 40.8781C18.6387 40.6902 18.4795 40.5458 18.2875 40.5458C18.0784 40.5458 17.9089 40.7153 17.9089 40.9244V42.1617C17.9089 42.7128 17.4622 43.1595 16.9111 43.1595C16.3601 43.1595 15.9133 42.7128 15.9133 42.1617V37.6848C15.9133 37.1338 16.3601 36.687 16.9111 36.687C17.4622 36.687 17.9089 37.1338 17.9089 37.6848V38.5248C17.9089 38.7632 18.1022 38.9564 18.3405 38.9564ZM21.9355 41.7688C22.3799 41.7688 22.7169 41.626 22.9465 41.3405C23.1761 41.0521 23.2909 40.5546 23.2909 39.8482C23.2909 38.6679 22.8347 38.0778 21.9222 38.0778C21.0304 38.0778 20.5845 38.6988 20.5845 39.9409C20.5845 41.1595 21.0348 41.7688 21.9355 41.7688Z" fill="#006422"/>
<path d="M20.0097 12.2113C20.1228 11.6846 20.8743 11.6846 20.9874 12.2113L22.5495 19.4859C22.5908 19.6783 22.7411 19.8285 22.9334 19.8698L30.208 21.4319C30.7347 21.545 30.7347 22.2965 30.208 22.4097L22.9334 23.9718C22.7411 24.0131 22.5908 24.1633 22.5495 24.3557L20.9874 31.6302C20.8743 32.1569 20.1228 32.1569 20.0097 31.6302L18.4476 24.3557C18.4063 24.1633 18.256 24.0131 18.0637 23.9718L10.7891 22.4097C10.2624 22.2965 10.2624 21.545 10.7891 21.4319L18.0637 19.8698C18.256 19.8285 18.4063 19.6783 18.4476 19.4859L20.0097 12.2113Z" fill="#006422"/>
</svg>