<svg xmlns="http://www.w3.org/2000/svg" width="25" height="24" viewBox="0 0 25 24" fill="none">
<g clip-path="url(#clip0_829_24591)">
<path d="M1.25 6.12319H13.4615C13.7984 7.48416 15.0295 8.49633 16.4931 8.49633C17.9567 8.49633 19.1878 7.48416 19.5246 6.12319H23.75C24.1642 6.12319 24.5 5.78737 24.5 5.37319C24.5 4.959 24.1642 4.62319 23.75 4.62319H19.5246C19.1878 3.26222 17.9567 2.25 16.493 2.25C15.0294 2.25 13.7983 3.26222 13.4615 4.62319H1.25C0.835812 4.62319 0.5 4.959 0.5 5.37319C0.5 5.78737 0.835812 6.12319 1.25 6.12319ZM16.4931 3.75C17.3881 3.75 18.1163 4.47816 18.1163 5.37314C18.1163 6.26817 17.3881 6.99633 16.4931 6.99633C15.5981 6.99633 14.8699 6.26817 14.8699 5.37314C14.8699 4.47816 15.5981 3.75 16.4931 3.75ZM1.25 12.6101H5.47541C5.81225 13.9711 7.04333 14.9833 8.50695 14.9833C9.97058 14.9833 11.2017 13.9711 11.5385 12.6101H23.75C24.1642 12.6101 24.5 12.2743 24.5 11.8601C24.5 11.4459 24.1642 11.1101 23.75 11.1101H11.5385C11.2016 9.74916 9.97053 8.73694 8.50691 8.73694C7.04328 8.73694 5.8122 9.74916 5.47536 11.1101H1.25C0.835812 11.1101 0.5 11.4459 0.5 11.8601C0.5 12.2743 0.835766 12.6101 1.25 12.6101ZM8.50691 10.2369C9.40194 10.2369 10.1301 10.9651 10.1301 11.8601C10.1301 12.7551 9.40194 13.4833 8.50691 13.4833C7.61187 13.4833 6.88372 12.7551 6.88372 11.8601C6.88372 10.9651 7.61187 10.2369 8.50691 10.2369ZM23.75 17.5971H19.5246C19.1877 16.2361 17.9567 15.2239 16.493 15.2239C15.0294 15.2239 13.7983 16.2361 13.4615 17.5971H1.25C0.835812 17.5971 0.5 17.9329 0.5 18.3471C0.5 18.7612 0.835812 19.0971 1.25 19.0971H13.4615C13.7984 20.458 15.0295 21.4702 16.4931 21.4702C17.9567 21.4702 19.1878 20.458 19.5246 19.0971H23.75C24.1642 19.0971 24.5 18.7612 24.5 18.3471C24.5 17.9329 24.1642 17.5971 23.75 17.5971ZM16.4931 19.9702C15.5981 19.9702 14.8699 19.2421 14.8699 18.3471C14.8699 17.452 15.5981 16.7239 16.4931 16.7239C17.3881 16.7239 18.1163 17.452 18.1163 18.3471C18.1163 19.2421 17.3881 19.9702 16.4931 19.9702Z" fill="#313535"/>
</g>
<defs>
<clipPath id="clip0_829_24591">
<rect width="24" height="24" fill="white" transform="translate(0.5)"/>
</clipPath>
</defs>
</svg>