<svg xmlns="http://www.w3.org/2000/svg" width="50" height="50" viewBox="0 0 50 50" fill="none">
<path d="M34.375 5.46875C41.2656 5.46875 46.875 11.0781 46.875 17.9688C46.875 20.875 45.8594 23.7031 44.0078 25.9375C43.7891 26.1953 43.7656 26.5703 43.9531 26.8516L46 30.0781L40.7969 28.9219C40.6172 28.8828 40.4219 28.9063 40.2578 28.9922C38.4609 29.9531 36.4297 30.4609 34.3828 30.4609C33.25 30.4609 32.1563 30.2969 31.1172 30.0156C31.1875 30.5547 31.2266 31.1016 31.2422 31.6562C32.2578 31.8906 33.3047 32.0234 34.3828 32.0234C36.5859 32.0234 38.7734 31.5 40.7344 30.5078L47.5 32.0078C47.5547 32.0234 47.6094 32.0234 47.6719 32.0234C47.9219 32.0234 48.1641 31.8984 48.3125 31.6875C48.4922 31.4297 48.5 31.0859 48.3359 30.8203L45.5859 26.4766C47.4453 24.0391 48.4609 21.0391 48.4609 17.9609C48.4609 10.2031 42.1562 3.89844 34.3984 3.89844C26.6406 3.89844 20.8125 9.76562 20.375 17.1328C20.8984 17.2969 21.4063 17.5 21.9063 17.7188C22.0391 10.9375 27.5859 5.46094 34.3906 5.46094L34.375 5.46875Z" fill="white"/>
<path d="M28.125 12.1094H40.625V14.4531H28.125V12.1094ZM28.125 16.7969H40.625V19.1406H28.125V16.7969ZM31.25 21.4844H40.625V23.8281H31.25V21.4844ZM9.01562 44.4453C10.9844 45.5 13.2344 46.0938 15.625 46.0938C23.3906 46.0938 29.6875 39.7969 29.6875 32.0312C29.6875 24.2656 23.3906 17.9688 15.625 17.9688C7.85938 17.9688 1.5625 24.2656 1.5625 32.0312C1.5625 35.4375 2.77344 38.5625 4.78906 40.9922L1.5625 46.0938L9.01562 44.4453ZM15.625 40.2344C14.7656 40.2344 14.0625 39.5312 14.0625 38.6719C14.0625 37.8125 14.7656 37.1094 15.625 37.1094C16.4844 37.1094 17.1875 37.8125 17.1875 38.6719C17.1875 39.5312 16.4844 40.2344 15.625 40.2344ZM15.625 23.8281C17.9922 23.8281 19.9219 25.7578 19.9219 28.125C19.9219 30.0859 18.6016 31.75 16.7969 32.2578V35.1562H14.4531V31.25C14.4531 30.6016 14.9766 30.0781 15.625 30.0781C16.143 30.0781 16.6398 29.8724 17.0061 29.5061C17.3723 29.1398 17.5781 28.643 17.5781 28.125C17.5781 27.607 17.3723 27.1102 17.0061 26.7439C16.6398 26.3776 16.143 26.1719 15.625 26.1719C15.107 26.1719 14.6102 26.3776 14.2439 26.7439C13.8777 27.1102 13.6719 27.607 13.6719 28.125H11.3281C11.3281 25.7578 13.2578 23.8281 15.625 23.8281Z" fill="white"/>
</svg>