<svg width="51" height="69" viewBox="0 0 51 69" fill="none" xmlns="http://www.w3.org/2000/svg">
<path d="M25.5 31C24.241 31 23.021 30.4882 22.1119 29.557C21.2008 28.6236 20.6786 27.3453 20.6786 26C20.6786 24.6547 21.2008 23.3763 22.1119 22.443C23.021 21.5118 24.241 21 25.5 21C26.759 21 27.979 21.5118 28.8881 22.443C29.7992 23.3763 30.3214 24.6547 30.3214 26C30.3214 27.3453 29.7992 28.6236 28.8881 29.557C27.979 30.4882 26.759 31 25.5 31ZM2.5 26C2.5 33.3238 6.4195 41.7367 10.6201 48.7435C14.8867 55.8603 19.7352 61.9936 22.1152 64.871C23.8823 67.0075 27.1176 67.0075 28.8848 64.871C31.2648 61.9936 36.1133 55.8603 40.3799 48.7435C44.5805 41.7367 48.5 33.3238 48.5 26C48.5 13.0664 38.2707 2.5 25.5 2.5C12.7293 2.5 2.5 13.0664 2.5 26Z" fill="white" stroke="#92CAEA" stroke-width="5"/>
</svg>
