<svg width="40" height="40" viewBox="0 0 40 40" fill="none" xmlns="http://www.w3.org/2000/svg">
<path d="M10.5859 22.1796C10.5859 20.6942 11.7901 19.4899 13.2757 19.4899C14.7611 19.4899 15.9653 20.6942 15.9653 22.1796M24.0345 22.1796C24.0345 20.6942 25.2388 19.4899 26.7242 19.4899C28.2098 19.4899 29.414 20.6942 29.414 22.1796M15.3647 27.5591C16.3004 29.1448 18.0254 30.2092 19.9999 30.2092C21.9745 30.2092 23.6995 29.1448 24.6352 27.5591M19.9999 6.30467C12.8867 6.30467 6.8992 11.1258 5.12733 17.6781C4.04452 17.6984 3.0664 18.1453 2.35312 18.8578C1.62344 19.5882 1.17188 20.5968 1.17188 21.7109C1.17188 23.9124 2.93515 25.7023 5.12733 25.7437C6.8992 32.296 12.8867 37.1171 19.9999 37.1171C27.1132 37.1171 33.1007 32.296 34.8726 25.7437C37.0647 25.7023 38.828 23.9124 38.828 21.7109C38.828 20.5968 38.3764 19.5882 37.6468 18.8578C36.9335 18.1453 35.9554 17.6984 34.8726 17.6781C33.1007 11.1258 27.1132 6.30467 19.9999 6.30467ZM19.9999 6.30467C22.7688 6.30467 25.0134 8.54928 25.0134 11.3181C25.0134 14.0869 22.7688 16.3314 19.9999 16.3314C17.2311 16.3314 14.9866 14.0869 14.9866 11.3181M19.9999 6.30467L19.2142 6.30475C16.6772 6.30475 14.6205 4.24804 14.6205 1.71094M19.9999 6.30467L13.8348 6.30468C11.2977 6.30468 9.24107 4.24796 9.24107 1.71094" stroke="white" stroke-width="1.5" stroke-miterlimit="10" stroke-linecap="round" stroke-linejoin="round"/>
</svg>
