<svg width="100" height="140" viewBox="0 0 100 140" fill="none" xmlns="http://www.w3.org/2000/svg">
<g clip-path="url(#clip0_3_52)">
<circle cx="50.2222" cy="52.2222" r="46.2222" fill="white"/>
<path d="M57.68 0.452651C55.1316 0.145659 52.5668 -0.00545611 50 0.00015043V0.025151C47.4332 0.0195445 44.8684 0.170658 42.32 0.47765C16.8725 3.59765 0 27.5426 0 51.6776C0 67.2701 7.815 81.6601 15.7975 94.9801C23.9771 108.384 33.0003 121.254 42.8125 133.513C44.64 135.83 47.1275 139.82 50 140V139.975C52.8725 139.795 55.36 135.805 57.1875 133.488C66.9997 121.229 76.0229 108.359 84.2025 94.9551C92.185 81.6351 100 67.2501 100 51.6526C100 27.5176 83.1275 3.57265 57.68 0.452651ZM50 92.5001C41.5943 92.5001 33.3774 90.0076 26.3883 85.3376C19.3992 80.6676 13.9518 74.03 10.7351 66.2642C7.5184 58.4983 6.67675 49.953 8.31663 41.7088C9.9565 33.4646 14.0042 25.8918 19.948 19.9481C25.8917 14.0044 33.4645 9.95665 41.7087 8.31677C49.9529 6.6769 58.4982 7.51855 66.264 10.7352C74.0299 13.952 80.6675 19.3993 85.3375 26.3884C90.0074 33.3775 92.5 41.5944 92.5 50.0001C92.5 61.2718 88.0223 72.0819 80.052 80.0522C72.0817 88.0225 61.2717 92.5001 50 92.5001Z" fill="#006422"/>
<g clip-path="url(#clip1_3_52)">
<path fill-rule="evenodd" clip-rule="evenodd" d="M67.1446 32.2723C64.5539 34.4765 62.1215 36.2049 59.9663 37.7419C54.8867 41.3573 51.4305 43.8186 51.1024 49.1242V69.0555C52.839 66.6871 55.4637 64.822 58.654 62.5466C61.1656 60.7635 64.0391 58.7124 67.1446 55.901V32.2723ZM48.7945 28.0825L35.0885 35.3024L32.7467 36.5386V42.6645C35.8522 45.4759 38.7257 47.527 41.2373 49.3101C44.4333 51.5855 47.0579 53.4506 48.7889 55.8299V28.0825H48.7945ZM51.1024 42.3254C52.839 39.9571 55.4637 38.0919 58.654 35.8056C61.1542 34.0226 64.0391 31.966 67.1446 29.171V25.4517L51.0968 16.9902V42.3254H51.1024ZM32.7523 45.7658C35.3431 47.9701 37.7754 49.6985 39.9193 51.2354C44.371 54.4078 47.5897 56.6941 48.5343 60.7854C49.083 63.1537 48.7945 66.1839 48.7945 68.5413V75.5862H34.3305C33.9063 75.5862 33.5216 75.4166 33.2388 75.1486C32.956 74.8806 32.7467 74.5032 32.7467 74.093V45.7658H32.7523ZM69.4525 67.9342V24.7351C69.4525 24.303 69.2262 23.8983 68.8246 23.685L50.5537 14.053C50.3727 13.9491 50.1634 13.8889 49.9485 13.8889C49.3093 13.8889 48.7945 14.414 48.7945 15.0649V25.4353L31.0723 34.7774C30.6707 34.9852 30.4444 35.3954 30.4444 35.8275V74.093C30.4444 75.1377 30.8461 76.0894 31.5588 76.7731C32.2715 77.4623 33.2501 77.8889 34.3305 77.8889H65.5607C66.6412 77.8889 67.6254 77.4623 68.3325 76.7731C69.0396 76.0839 69.4468 75.1377 69.4468 74.093V67.9287L69.4525 67.9342ZM51.1307 75.5916C51.5663 70.4721 54.9942 68.0272 59.9833 64.4774C62.1272 62.935 64.5595 61.212 67.1503 59.0078V74.0984C67.1503 74.5087 66.9353 74.8806 66.6581 75.1541C66.381 75.4276 65.9907 75.5916 65.5664 75.5916H51.1307Z" fill="#006422"/>
</g>
</g>
<defs>
<clipPath id="clip0_3_52">
<rect width="100" height="140" fill="white"/>
</clipPath>
<clipPath id="clip1_3_52">
<rect width="39.1111" height="64" fill="white" transform="translate(30.4444 13.8889)"/>
</clipPath>
</defs>
</svg>
