<svg width="40" height="40" viewBox="0 0 40 40" fill="none" xmlns="http://www.w3.org/2000/svg">
<path d="M7.99531 11.8788C5.21211 11.8788 3.04918 14.3022 3.36436 17.0675L4.88421 30.4045C5.29085 33.9723 8.31007 36.667 11.901 36.667H28.1111C31.702 36.667 34.7212 33.9723 35.1277 30.4045L36.6477 17.0675C36.9628 14.3022 34.7999 11.8788 32.0167 11.8788" stroke="white" stroke-width="1.5" stroke-miterlimit="10" stroke-linecap="round" stroke-linejoin="round"/>
<path d="M19.1531 11.8788H26.639V9.90144C26.639 6.27416 23.6984 3.33362 20.0712 3.33362C16.4439 3.33362 13.5034 6.27416 13.5034 9.90144V15.1274" stroke="white" stroke-width="1.5" stroke-miterlimit="10" stroke-linecap="round" stroke-linejoin="round"/>
<path d="M15.6926 22.4718C15.6926 23.4468 14.9022 24.2373 13.9271 24.2373C12.952 24.2373 12.1616 23.4468 12.1616 22.4718C12.1616 21.4967 12.952 20.7062 13.9271 20.7062C14.9022 20.7062 15.6926 21.4967 15.6926 22.4718Z" fill="white"/>
<path d="M21.7661 22.4718C21.7661 23.4468 20.9757 24.2373 20.0006 24.2373C19.0255 24.2373 18.235 23.4468 18.235 22.4718C18.235 21.4967 19.0255 20.7062 20.0006 20.7062C20.9757 20.7062 21.7661 21.4967 21.7661 22.4718Z" fill="white"/>
<path d="M27.8396 22.4718C27.8396 23.4468 27.0491 24.2373 26.0741 24.2373C25.099 24.2373 24.3085 23.4468 24.3085 22.4718C24.3085 21.4967 25.099 20.7062 26.0741 20.7062C27.0491 20.7062 27.8396 21.4967 27.8396 22.4718Z" fill="white"/>
<path d="M15.6926 28.5455C15.6926 29.5206 14.9022 30.311 13.9271 30.311C12.952 30.311 12.1616 29.5206 12.1616 28.5455C12.1616 27.5704 12.952 26.78 13.9271 26.78C14.9022 26.78 15.6926 27.5704 15.6926 28.5455Z" fill="white"/>
<path d="M21.7661 28.5455C21.7661 29.5206 20.9757 30.311 20.0006 30.311C19.0255 30.311 18.235 29.5206 18.235 28.5455C18.235 27.5704 19.0255 26.78 20.0006 26.78C20.9757 26.78 21.7661 27.5704 21.7661 28.5455Z" fill="white"/>
<path d="M27.8396 28.5455C27.8396 29.5206 27.0491 30.311 26.0741 30.311C25.099 30.311 24.3085 29.5206 24.3085 28.5455C24.3085 27.5704 25.099 26.78 26.0741 26.78C27.0491 26.78 27.8396 27.5704 27.8396 28.5455Z" fill="white"/>
</svg>
