<svg width="50" height="50" viewBox="0 0 50 50" fill="none" xmlns="http://www.w3.org/2000/svg">
<path fill-rule="evenodd" clip-rule="evenodd" d="M25.0007 50C23.4227 50 22.1436 48.7208 22.1436 47.1429V2.85714C22.1436 1.27919 23.4227 0 25.0007 0C26.5787 0 27.8578 1.27919 27.8578 2.85714V47.1429C27.8578 48.7208 26.5787 50 25.0007 50Z" fill="#46A7DF"/>
<path fill-rule="evenodd" clip-rule="evenodd" d="M-1.2489e-07 25C-5.5915e-08 23.422 1.27919 22.1428 2.85714 22.1428L47.1429 22.1428C48.7208 22.1428 50 23.422 50 25C50 26.5779 48.7208 27.8571 47.1429 27.8571L2.85714 27.8571C1.27919 27.8571 -1.93864e-07 26.5779 -1.2489e-07 25Z" fill="#46A7DF"/>
</svg>
