<svg width="50" height="50" viewBox="0 0 50 50" fill="none" xmlns="http://www.w3.org/2000/svg">
<path fill-rule="evenodd" clip-rule="evenodd" d="M23.7161 8.50044C22.486 8.2526 21.1578 8.3072 17.7757 8.48521L16.0655 8.57522C14.4447 8.66052 13.3481 8.71971 12.4992 8.83102C11.676 8.93897 11.249 9.07847 10.9448 9.24159C10.2221 9.62921 9.62982 10.2215 9.2422 10.9442C9.07908 11.2484 8.93958 11.6753 8.83163 12.4986C8.72032 13.3475 8.66113 14.4441 8.57583 16.0649L8.48582 17.7751C8.30781 21.1572 8.25321 22.4854 8.50105 23.7155C8.73146 24.8591 9.15233 25.9559 9.74611 26.9601C10.3848 28.0402 11.3139 28.991 13.7087 31.3858L18.7535 36.4306C21.6101 39.2872 22.7072 40.3479 23.8091 40.9094C26.1859 42.1204 28.9988 42.1204 31.3756 40.9094C32.4775 40.3479 33.5746 39.2872 36.4312 36.4306C39.2878 33.574 40.3485 32.4769 40.91 31.375C42.121 28.9982 42.121 26.1853 40.91 23.8085C40.3485 22.7066 39.2878 21.6095 36.4312 18.7529L31.3864 13.7081C28.9916 11.3133 28.0408 10.3842 26.9607 9.7455C25.9565 9.15172 24.8598 8.73085 23.7161 8.50044ZM17.8448 4.30911C20.8446 4.15078 22.7296 4.05128 24.5391 4.41585C26.1401 4.73842 27.6756 5.32764 29.0815 6.15893C30.6704 7.09845 32.0049 8.43341 34.1287 10.5578C34.1959 10.625 34.2639 10.693 34.3327 10.7618L39.3775 15.8066C39.4768 15.906 39.5748 16.004 39.6715 16.1006C42.1308 18.5586 43.7213 20.1482 44.6225 21.9169C46.439 25.4821 46.439 29.7014 44.6225 33.2666C43.7213 35.0352 42.1308 36.6249 39.6715 39.0829C39.5748 39.1795 39.4768 39.2775 39.3775 39.3769C39.2781 39.4762 39.1801 39.5742 39.0835 39.6709C36.6255 42.1302 35.0359 43.7207 33.2672 44.6219C29.702 46.4384 25.4827 46.4384 21.9175 44.6219C20.1489 43.7207 18.5592 42.1302 16.1012 39.6709C16.0046 39.5742 15.9066 39.4762 15.8072 39.3769L10.7624 34.3321C10.6936 34.2633 10.6256 34.1953 10.5584 34.1281C8.43402 32.0043 7.09906 30.6698 6.15954 29.0809C5.32825 27.675 4.73903 26.1395 4.41646 24.5385C4.05189 22.729 4.15139 20.844 4.30972 17.8442C4.31473 17.7493 4.3198 17.6533 4.32491 17.5561L4.41917 15.7652C4.49913 14.2454 4.5654 12.9859 4.70033 11.9569C4.84099 10.8841 5.07333 9.90155 5.57028 8.97494C6.34551 7.52946 7.53007 6.3449 8.97555 5.56967C9.90216 5.07272 10.8848 4.84038 11.9575 4.69972C12.9865 4.56479 14.246 4.49852 15.7658 4.41856L17.5567 4.3243C17.6539 4.31918 17.7499 4.31412 17.8448 4.30911ZM13.52 16.6406C13.52 14.9147 14.9191 13.5156 16.645 13.5156C18.3709 13.5156 19.77 14.9147 19.77 16.6406C19.77 18.3665 18.3709 19.7656 16.645 19.7656C14.9191 19.7656 13.52 18.3665 13.52 16.6406Z" fill="#313535"/>
</svg>
