<svg width="1440" height="740" viewBox="0 0 1440 740" fill="none" xmlns="http://www.w3.org/2000/svg">
<g clip-path="url(#clip0_1_3)">
<path d="M124.663 73.3776C122.165 62.8161 112.699 54.9575 101.37 54.9575C98.7142 54.9575 96.1942 55.389 93.8105 56.1839C87.5902 47.7348 77.5558 42.2383 66.2729 42.2383C51.0626 42.2383 38.1905 52.1638 33.7409 65.8823C31.5842 65.3145 29.314 64.9965 26.9757 64.9965C12.3556 64.9965 0.482422 76.8526 0.482422 91.5024C0.482422 106.152 12.3329 118.008 26.9757 118.008C31.6523 118.008 36.0338 116.804 39.8251 114.669C44.6606 120.961 52.2658 125.027 60.8245 125.027C67.9075 125.027 74.3549 122.233 79.1223 117.69C83.3676 121.847 89.1566 124.413 95.5813 124.413C105.706 124.413 114.333 118.008 117.648 109.037C119.804 109.922 122.143 110.399 124.617 110.399C134.833 110.399 143.119 102.109 143.119 91.8885C143.119 81.6677 134.856 73.4003 124.685 73.3776H124.663Z" fill="white"/>
<path d="M1420.65 110.604C1418.16 100.043 1408.69 92.1842 1397.36 92.1842C1394.71 92.1842 1392.16 92.6157 1389.8 93.4107C1383.58 84.9615 1373.55 79.465 1362.26 79.465C1347.05 79.465 1334.18 89.3905 1329.73 103.109C1327.58 102.541 1325.31 102.223 1322.97 102.223C1308.35 102.223 1296.47 114.079 1296.47 128.729C1296.47 143.379 1308.32 155.235 1322.97 155.235C1327.64 155.235 1332.03 154.031 1335.82 151.896C1340.65 158.188 1348.26 162.253 1356.82 162.253C1363.9 162.253 1370.35 159.46 1375.11 154.917C1379.36 159.073 1385.15 161.64 1391.55 161.64C1401.68 161.64 1410.3 155.235 1413.62 146.263C1415.77 147.149 1418.11 147.626 1420.59 147.626C1430.8 147.626 1439.09 139.336 1439.09 129.115C1439.09 118.894 1430.82 110.627 1420.65 110.604Z" fill="white"/>
<path d="M851.991 33.4261C849.357 22.2514 839.323 13.9158 827.336 13.9158C824.544 13.9158 821.843 14.37 819.323 15.2104C812.739 6.26156 802.114 0.447083 790.15 0.447083C774.055 0.447083 760.411 10.9631 755.711 25.4993C753.419 24.8861 751.012 24.5681 748.538 24.5681C733.055 24.5681 720.501 37.1283 720.501 52.6184C720.501 68.1086 733.055 80.6688 748.538 80.6688C753.487 80.6688 758.118 79.3968 762.159 77.1483C767.289 83.8258 775.349 88.1186 784.407 88.1186C791.921 88.1186 798.732 85.1659 803.772 80.3508C808.267 84.7571 814.396 87.4599 821.184 87.4599C831.899 87.4599 841.048 80.6688 844.567 71.1748C846.837 72.106 849.335 72.6284 851.945 72.6284C862.774 72.6284 871.537 63.8613 871.537 53.0272C871.537 42.1932 862.797 33.4715 852.014 33.4261H851.991Z" fill="white"/>
<path opacity="0.2" d="M1379.84 423.678V409.346H1355.79V423.678H1354.52V523.228H1310.69V548.553H1304.49V639.677H1288.76V627.866H1271.89V593.547H1229.73V575.559H1204.42V564.861H1193.18V520.98H1182.49V466.242H1163.01V459.587H1160.1L1144.35 445.891L1126.5 459.587H1122.78V461.654H1105.35V454.908H1102.39L1086.37 440.985L1068.23 454.908H1064.44V461.654H1056.85V575.559H1053.06V670.316H1050.09V426.222H1044.19V413.139H999.509V417.773H991.904V407.234H937.101V417.773H921.073V670.316H919.938V627.298H909.541V624.209L901.686 618.304L893.24 624.209V627.298H882.843V624.755L876.237 618.145L869.903 624.755V627.298H858.665V604.222H851.196L832.808 596.931L818.619 604.222H812.013V617.169H807.518V670.612H791.217V654.304H775.462V670.612H756.915V551.369H749.037V540.104H737.8V573.31H731.057V503.559H711.374V494.542H681.022V503.559H673.144V580.056H656.844V590.163H652.349V536.175H589.941V512.553H571.394V283.063H551.143V265.62H509.553V252.696H489.303V193.643L429.143 217.809V203.182H402.173V279.701H369.005V242.566H351.57V301.074H326.825V318.495H319.514V553.05H309.957V589.05H306.029V541.24H279.604V531.11L260.489 507.488H236.311V531.11H224.506V640.79H217.196V464.743H186.844V425.359L158.171 445.641H132.881V484.435L114.878 503.741V633.476H107.568V628.979H91.2681V579.761H81.143V569.085H74.1281V576.104H68.7931V579.761H60.0755V604.222H52.4704V594.955H38.9854V740.068H1411.46V423.678H1379.84Z" fill="#46A7DF"/>
<path d="M330.661 701.798H208.093V716.561H330.661V701.798Z" fill="#767978"/>
<path d="M295.246 666.774H243.485V701.798H295.246V666.774Z" fill="#767978"/>
<path d="M231.271 694.007V730.711H308.731V694.007H231.271ZM266.914 712.223L237.946 726.282V698.163L266.914 712.223ZM241.147 696.71H298.855L270.001 710.723L241.147 696.71ZM270.001 713.722L299.4 728.008H240.579L269.978 713.722H270.001ZM273.089 712.223L302.079 698.141V726.282L273.089 712.2V712.223Z" fill="#767978"/>
<path d="M231.271 657.326V694.007H308.731V657.326H231.271ZM266.914 675.542L237.946 689.601V661.483L266.914 675.542ZM241.147 660.029H298.855L270.001 674.043L241.147 660.029ZM270.001 677.041L299.4 691.327H240.579L269.978 677.041H270.001ZM273.089 675.542L302.079 661.46V689.601L273.089 675.519V675.542Z" fill="#767978"/>
<path d="M231.271 620.645V657.326H308.731V620.645H231.271ZM266.914 638.86L237.946 652.919V624.801L266.914 638.86ZM241.147 623.347H298.855L270.001 637.361L241.147 623.347ZM270.001 640.359L299.4 654.646H240.579L269.978 640.359H270.001ZM273.089 638.86L302.079 624.778V652.919L273.089 638.837V638.86Z" fill="#767978"/>
<path d="M231.271 583.941V620.622H308.731V583.941H231.271ZM266.914 602.156L237.946 616.215V588.097L266.914 602.156ZM241.147 586.643H298.855L270.001 600.657L241.147 586.643ZM270.001 603.655L299.4 617.919H240.579L269.978 603.655H270.001ZM273.089 602.156L302.079 588.074V616.215L273.089 602.134V602.156Z" fill="#767978"/>
<path d="M231.271 547.26V583.941H308.731V547.26H231.271ZM266.914 565.475L237.946 579.535V551.416L266.914 565.475ZM241.147 549.963H298.855L270.001 563.976L241.147 549.963ZM270.001 566.975L299.4 581.261H240.579L269.978 566.975H270.001ZM273.089 565.475L302.079 551.394V579.535L273.089 565.453V565.475Z" fill="#767978"/>
<path d="M231.271 510.578V547.259H308.731V510.578H231.271ZM266.914 528.794L237.946 542.853V514.735L266.914 528.794ZM241.147 513.281H298.855L270.001 527.295L241.147 513.281ZM270.001 530.293L299.4 544.557H240.579L269.978 530.293H270.001ZM273.089 528.794L302.079 514.712V542.853L273.089 528.771V528.794Z" fill="#767978"/>
<path d="M250.319 469.74V510.578H289.616V469.74H250.319ZM268.458 490.136L254.382 506.603V473.67L268.458 490.136ZM256.017 471.875H284.077L270.047 488.274L256.017 471.875ZM270.047 491.999L284.122 508.443H255.994L270.069 491.999H270.047ZM271.636 490.136L285.575 473.829V506.422L271.636 490.114V490.136Z" fill="#767978"/>
<path d="M250.319 428.926V469.741H289.616V428.926H250.319ZM268.458 449.322L254.382 465.789V432.855L268.458 449.322ZM256.017 431.061H284.077L270.047 447.46L256.017 431.061ZM270.047 451.184L284.122 467.628H255.994L270.069 451.184H270.047ZM271.636 449.322L285.575 433.014V465.607L271.636 449.299V449.322Z" fill="#767978"/>
<path d="M250.319 388.088V428.926H289.616V388.088H250.319ZM268.458 408.484L254.382 424.951V392.017L268.458 408.484ZM256.017 390.223H284.077L270.047 406.622L256.017 390.223ZM270.047 410.347L284.122 426.791H255.994L270.069 410.347H270.047ZM271.636 408.484L285.575 392.199V424.792L271.636 408.484Z" fill="#767978"/>
<path d="M250.319 347.25V388.088H289.616V347.25H250.319ZM268.458 367.646L254.382 384.113V351.179L268.458 367.646ZM256.017 349.385H284.077L270.047 365.784L256.017 349.385ZM270.047 369.509L284.122 385.953H255.994L270.069 369.509H270.047ZM271.636 367.646L285.575 351.338V383.931L271.636 367.623V367.646Z" fill="#767978"/>
<path d="M250.319 306.436V347.273H289.616V306.436H250.319ZM268.458 326.832L254.382 343.299V310.365L268.458 326.832ZM256.017 308.571H284.077L270.047 324.969L256.017 308.571ZM270.047 328.694L284.122 345.138H255.994L270.069 328.694H270.047ZM271.636 326.832L285.575 310.524V343.117L271.636 326.809V326.832Z" fill="#767978"/>
<path d="M250.319 265.598V306.435H289.616V265.598H250.319ZM268.458 285.994L254.382 302.46V269.527L268.458 285.994ZM256.017 267.732H284.077L270.047 284.131L256.017 267.732ZM270.047 287.856L284.122 304.3H255.994L270.069 287.856H270.047ZM271.636 285.994L285.575 269.686V302.279L271.636 285.971V285.994Z" fill="#767978"/>
<path d="M250.319 224.76V265.598H289.616V224.76H250.319ZM268.458 245.156L254.382 261.623V228.689L268.458 245.156ZM256.017 226.895H284.077L270.047 243.294L256.017 226.895ZM270.047 247.018L284.122 263.463H255.994L270.069 247.018H270.047ZM271.636 245.156L285.575 228.848V261.441L271.636 245.133V245.156Z" fill="#767978"/>
<path d="M250.319 183.944V224.782H289.616V183.944H250.319ZM268.458 204.341L254.382 220.807V187.874L268.458 204.341ZM256.017 186.079H284.077L270.047 202.478L256.017 186.079ZM270.047 206.203L284.122 222.647H255.994L270.069 206.203H270.047ZM271.636 204.341L285.575 188.033V220.626L271.636 204.318V204.341Z" fill="#767978"/>
<path d="M250.319 143.108V183.945H289.616V143.108H250.319ZM268.458 163.504L254.382 179.97V147.037L268.458 163.504ZM256.017 145.243H284.077L270.047 161.641L256.017 145.243ZM270.047 165.366L284.122 181.81H255.994L270.069 165.366H270.047ZM271.636 163.504L285.575 147.196V179.789L271.636 163.481V163.504Z" fill="#767978"/>
<path d="M250.319 102.27V143.107H289.616V102.27H250.319ZM268.458 122.666L254.382 139.133V106.199L268.458 122.666ZM256.017 104.405H284.077L270.047 120.803L256.017 104.405ZM270.047 124.528L284.122 140.972H255.994L270.069 124.528H270.047ZM271.636 122.666L285.575 106.358V138.951L271.636 122.643V122.666Z" fill="#767978"/>
<path d="M250.504 466.361L231.291 510.633L236.393 512.849L255.606 468.577L250.504 466.361Z" fill="#767978"/>
<path d="M289.528 466.318L284.426 468.533L303.631 512.808L308.733 510.593L289.528 466.318Z" fill="#767978"/>
<path d="M254.36 510.578H250.319V730.711H254.36V510.578Z" fill="#767978"/>
<path d="M289.593 510.578H285.552V730.711H289.593V510.578Z" fill="#767978"/>
<path d="M362.24 716.561H177.763V730.711H362.24V716.561Z" fill="#767978"/>
<path d="M198.558 730.711H179.67V740.069H198.558V730.711Z" fill="#767978"/>
<path d="M360.333 730.711H341.445V740.069H360.333V730.711Z" fill="#767978"/>
<path d="M322.534 730.711H217.446V740.069H322.534V730.711Z" fill="#767978"/>
<path d="M184.12 710.042V712.427V716.561H186.503V712.427H199.512V716.561H201.895V712.427H214.926V716.561H217.287V712.427H230.318V716.561H232.702V712.427H245.71V716.561H248.094V712.427H261.102V716.561H263.486V712.427H276.517V716.561H278.878V712.427H291.909V716.561H294.293V712.427H307.301V716.561H309.685V712.427H322.693V716.561H325.077V712.427H338.108V716.561H340.491V712.427H353.499V716.561H355.883V710.042H184.12Z" fill="#767978"/>
<path d="M270.001 44.0791C270.001 47.2362 267.436 49.8027 264.28 49.8027C261.125 49.8027 258.56 47.2362 258.56 44.0791C258.56 40.922 261.125 38.3555 264.28 38.3555C267.436 38.3555 270.001 40.922 270.001 44.0791Z" fill="#767978"/>
<path d="M811.173 137.497C811.173 140.654 808.607 143.221 805.452 143.221C802.296 143.221 799.731 140.654 799.731 137.497C799.731 134.34 802.273 131.773 805.452 131.773C808.63 131.773 811.173 134.34 811.173 137.497Z" fill="#767978"/>
<path d="M63.549 131.001L263.259 40.7633L262.646 39.0371L62.936 129.275L63.549 131.001Z" fill="#767978"/>
<path d="M61.7328 131.728L264.825 44.7605L264.235 43.0116L61.1426 130.002L61.7328 131.728Z" fill="#767978"/>
<path d="M267.277 41.6256L806.519 135.157L806.837 133.272L267.595 39.7178L267.277 41.6256Z" fill="#767978"/>
<path d="M266.596 45.6459L806.519 135.157L806.837 133.249L266.914 43.7607L266.596 45.6459Z" fill="#767978"/>
<path d="M250.319 76.7861V104.428H278.333V76.7861H250.319ZM274.292 100.476L265.983 91.1406L274.292 81.8057V100.453V100.476ZM273.043 102.293H256.085L264.553 92.776L273.043 102.293ZM273.043 80.0113L264.553 89.5507L256.062 80.0113H273.043ZM254.359 81.3287L263.1 91.1634L254.359 100.998V81.3287Z" fill="#767978"/>
<path d="M250.319 51.2793V78.9208H278.333V51.2793H250.319ZM274.292 74.9688L265.983 65.6338L274.292 56.2989V74.9461V74.9688ZM273.043 76.7858H256.085L264.553 67.2692L273.043 76.7858ZM273.043 54.5046L264.553 64.0439L256.062 54.5046H273.043ZM254.36 55.8219L263.1 65.6565L254.36 75.4912V55.8446V55.8219Z" fill="#767978"/>
<path d="M270.705 34.7217H257.924L250.296 51.2793V54.5046H278.31V51.2793L270.682 34.7217H270.705ZM260.898 37.9469H267.709L273.861 51.2793H254.746L260.875 37.9469H260.898Z" fill="#767978"/>
<path d="M122.552 145.242H67.5673V192.712H122.552V145.242Z" fill="#767978"/>
<path d="M477.044 128.117H449.893V174.974H477.044V128.117Z" fill="#767978"/>
<path d="M457.52 275.932H459.836V174.974H457.52V275.932ZM469.008 174.974V275.932H471.346V174.974H469.008Z" fill="#767978"/>
<path d="M471.323 275.841L465.852 269.527H462.946L457.498 275.841V292.762L462.946 299.077C463.082 299.258 463.196 299.417 463.355 299.599C465.012 301.689 466.079 303.369 466.556 304.664C466.919 305.618 466.987 306.504 466.76 307.321C466.579 308.048 466.215 308.684 465.648 309.252C465.103 309.797 464.422 310.183 463.582 310.388C462.742 310.592 461.925 310.569 461.107 310.365C459.178 309.865 457.816 308.048 457.044 304.959L454.615 305.663C455.159 307.821 455.931 309.456 456.953 310.569C457.974 311.682 459.223 312.432 460.721 312.841C462.674 313.34 464.49 313.113 466.215 312.136C467.918 311.16 469.008 309.774 469.462 307.98C469.78 306.731 469.711 305.391 469.235 303.96C468.781 302.574 467.714 300.848 466.079 298.804L471.278 292.785V275.864L471.323 275.841Z" fill="#767978"/>
<path d="M821.457 130.728L289.752 102.292H250.296L58.0552 127.117V145.242H821.502V130.728H821.479H821.457ZM814.919 134.658L806.383 136.679L796.87 133.704L814.919 134.68V134.658ZM784.203 133.022L776.257 135.68L766.155 132.069L784.203 133.022ZM755.734 131.501L743.589 134.885L729.536 130.092L755.712 131.501H755.734ZM717.867 129.479L704.95 133.727L689.671 127.957L717.867 129.479ZM679.433 127.412L664.745 132.545L647.105 125.663L679.433 127.39V127.412ZM637.525 125.164L623.291 131.614L606.173 123.483L637.525 125.164ZM598.046 123.052L583.88 130.683L567.262 121.393L598.046 123.052ZM560.043 121.007L545.809 129.547L529.69 119.372L560.02 120.985L560.043 121.007ZM521.472 118.94L506.534 128.185L489.666 117.237L521.472 118.94ZM481.902 116.828L467.214 127.276L451.255 115.193L481.902 116.828ZM443.876 114.784L428.916 126.027L412.865 113.126L443.899 114.784H443.876ZM405.669 112.74L391.684 125.028L376.61 111.195L405.669 112.74ZM369.096 110.787L353.454 124.028L336.677 109.06L369.096 110.787ZM329.163 108.652L310.865 123.074L291.296 106.63L329.163 108.652ZM248.957 106.744L228.797 124.096L211.566 111.559L248.957 106.721V106.744ZM204.71 112.467L188.774 126.322L174.993 116.306L204.71 112.467ZM167.865 117.237L150.952 129.207L137.104 121.212L167.865 117.237ZM128.908 122.279L108.408 131.864L93.9471 126.776L128.886 122.257L128.908 122.279ZM85.4338 127.889L73.2655 134.226L63.8442 130.66L85.4111 127.867L85.4338 127.889ZM62.028 132.091L70.9272 135.453L62.028 140.086V132.091ZM64.6161 140.972L73.4244 136.384L85.5927 140.972H64.6388H64.6161ZM87.3862 139.541L75.7628 135.157L87.3862 129.093V139.541ZM91.3137 127.957L105.843 133.068L91.3137 139.882V127.98V127.957ZM93.8336 140.995L108.658 134.045L128.409 140.995H93.8336ZM131.451 139.95L111.223 132.841L131.451 123.37V139.95ZM135.378 122.506L149.181 130.479L135.378 140.245V122.506ZM137.944 140.995L151.179 131.614L167.411 140.995H137.944ZM169.568 139.95L152.972 130.365L169.568 118.623V139.95ZM173.495 117.669L187.275 127.685L173.495 139.677V117.669ZM175.061 140.995L188.955 128.911L205.573 140.995H175.061ZM206.481 139.178L190.499 127.571L206.481 113.671V139.178ZM210.409 113.171L227.299 125.459L210.409 139.995V113.171ZM212.543 140.995L229.07 126.754L248.662 140.995H212.543ZM251.772 140.995L251.863 140.858L230.613 125.414L252.271 106.766L252.09 106.539H288.504L288.345 106.721L309.299 124.346L288.345 140.836L288.458 140.995H251.749H251.772ZM291.364 140.995L310.842 125.641L329.095 140.995H291.341H291.364ZM330.888 139.904L312.432 124.392L330.888 109.878V139.904ZM334.816 110.06L351.933 125.346L334.816 139.836V110.06ZM336.518 140.995L353.431 126.686L369.459 140.995H336.518ZM370.889 139.609L354.975 125.391L370.889 111.922V139.609ZM374.817 112.24L390.209 126.39L374.817 139.927V112.24ZM376.588 141.017L391.684 127.753L406.123 141.017H376.588ZM407.19 139.314L393.183 126.436L407.19 114.125V139.314ZM411.117 114.33L427.281 127.299L411.117 139.427V114.33ZM412.298 141.017L428.87 128.593L444.353 141.017H412.298ZM445.397 139.314L430.505 127.367L445.397 116.192V139.314ZM449.325 116.26L465.511 128.525L449.325 140.041V116.238V116.26ZM451.413 141.017L467.191 129.797L482.016 141.017H451.413ZM483.628 139.745L468.871 128.571L483.628 118.077V139.745ZM487.555 118.259L504.695 129.388L487.555 140.018V118.259ZM489.734 141.017L506.534 130.592L522.562 141.017H489.712H489.734ZM523.765 139.427L508.418 129.457L523.765 119.94V139.427ZM527.692 120.508L543.947 130.774L527.692 140.54V120.53V120.508ZM530.689 141.04L545.809 131.955L560.202 141.04H530.689ZM561.995 139.814L547.738 130.819L561.995 122.257V139.814ZM565.923 122.961L581.859 131.864L565.923 140.45V122.961ZM569.01 141.04L583.925 133L598.296 141.04H569.01ZM600.339 139.904L585.991 131.887L600.339 124.164V139.904ZM604.266 124.8L620.975 132.75L604.266 140.336V124.8ZM607.513 141.04L623.336 133.863L638.41 141.04H607.513ZM640.453 139.814L625.674 132.795L640.453 126.095V139.814ZM644.381 126.776L661.929 133.613L644.381 139.768V126.776ZM646.742 141.04L664.767 134.726L680.954 141.04H646.719H646.742ZM682.475 139.496L667.65 133.704L682.475 128.503V139.473V139.496ZM686.402 128.889L701.999 134.771L686.402 139.904V128.889ZM689.308 141.04L704.973 135.884L718.662 141.04H689.308ZM720.705 139.677L707.969 134.885L720.705 130.683V139.677ZM724.632 130.547L740.251 135.884L724.632 140.245V130.547ZM729.196 141.04L743.589 137.02L755.371 141.04H729.173H729.196ZM758.935 140.154L746.971 136.066L758.935 132.727V140.154ZM762.863 133.022L773.26 136.747L762.863 140.222V133V133.022ZM766.677 141.04L776.28 137.838L785.224 141.04H766.654H766.677ZM787.631 139.791L779.344 136.815L787.631 134.045V139.791ZM791.558 134.158L802.659 137.633L791.558 140.245V134.158ZM796.825 141.063L806.36 138.814L813.534 141.063H796.825ZM817.983 140.381L810.151 137.928L817.983 136.089V140.404V140.381Z" fill="#767978"/>
<path d="M304.735 146.878H294.565V135.862H247.299V192.917H321.194V163.345L304.713 146.855L304.735 146.878ZM294.565 173.77V150.739H303.124L317.335 164.957V173.77H294.565Z" fill="#767978"/>
<path d="M1307.6 710.882H1214.13V722.147H1307.6V710.882Z" fill="#B1B2B2"/>
<path d="M1280.63 684.172H1241.15V710.882H1280.63V684.172Z" fill="#B1B2B2"/>
<path d="M1230.87 704.932V732.914H1289.94V704.932H1230.87ZM1284.85 708.089V729.552L1262.76 718.832L1284.85 708.111V708.089ZM1260.4 717.674L1238.4 706.999H1282.42L1260.42 717.674H1260.4ZM1282.83 730.847H1237.97L1260.4 719.968L1282.83 730.847ZM1235.93 729.552V708.089L1258.04 718.832L1235.93 729.552Z" fill="#B1B2B2"/>
<path d="M1230.87 676.949V704.931H1289.94V676.949H1230.87ZM1284.85 680.106V701.547L1262.76 690.827L1284.85 680.106ZM1260.4 689.691L1238.4 679.016H1282.42L1260.42 689.691H1260.4ZM1282.83 702.864H1237.97L1260.4 691.985L1282.83 702.864ZM1235.93 701.57V680.106L1258.04 690.827L1235.93 701.57Z" fill="#B1B2B2"/>
<path d="M1230.87 648.989V676.971H1289.94V648.989H1230.87ZM1284.85 652.146V673.587L1262.76 662.867L1284.85 652.146ZM1260.4 661.731L1238.4 651.056H1282.42L1260.42 661.731H1260.4ZM1282.83 674.905H1237.97L1260.4 664.025L1282.83 674.905ZM1235.93 673.61V652.146L1258.04 662.867L1235.93 673.61Z" fill="#B1B2B2"/>
<path d="M1230.87 621.008V648.99H1289.94V621.008H1230.87ZM1284.85 624.165V645.629L1262.76 634.908L1284.85 624.188V624.165ZM1260.4 633.75L1238.4 623.075H1282.42L1260.42 633.75H1260.4ZM1282.83 646.923H1237.97L1260.4 636.044L1282.83 646.923ZM1235.93 645.629V624.165L1258.04 634.908L1235.93 645.629Z" fill="#B1B2B2"/>
<path d="M1230.87 593.025V621.007H1289.94V593.025H1230.87ZM1284.85 596.182V617.623L1262.76 606.903L1284.85 596.182ZM1260.4 605.767L1238.4 595.092H1282.42L1260.42 605.767H1260.4ZM1282.83 618.941H1237.97L1260.4 608.061L1282.83 618.941ZM1235.93 617.646V596.182L1258.04 606.925L1235.93 617.646Z" fill="#B1B2B2"/>
<path d="M1230.87 565.043V593.025H1289.94V565.043H1230.87ZM1284.85 568.2V589.641L1262.76 578.92L1284.85 568.2ZM1260.4 577.785L1238.4 567.11H1282.42L1260.42 577.785H1260.4ZM1282.83 590.958H1237.97L1260.4 580.079L1282.83 590.958ZM1235.93 589.664V568.2L1258.04 578.943L1235.93 589.686V589.664Z" fill="#B1B2B2"/>
<path d="M1245.44 533.905V565.044H1275.41V533.905H1245.44ZM1272.32 536.903V562.023L1261.58 549.463L1272.32 536.903ZM1260.38 548.055L1249.69 535.54H1271.07L1260.38 548.055ZM1271.12 563.431H1249.66L1260.38 550.894L1271.12 563.431ZM1248.55 561.909V537.039L1259.17 549.463L1248.55 561.887V561.909Z" fill="#B1B2B2"/>
<path d="M1245.44 502.765V533.904H1275.41V502.765H1245.44ZM1272.32 505.763V530.883L1261.58 518.323L1272.32 505.763ZM1260.38 516.915L1249.69 504.4H1271.07L1260.38 516.915ZM1271.12 532.291H1249.66L1260.38 519.754L1271.12 532.291ZM1248.55 530.747V505.877L1259.17 518.3L1248.55 530.724V530.747Z" fill="#B1B2B2"/>
<path d="M1245.44 471.625V502.765H1275.41V471.625H1245.44ZM1272.32 474.623V499.744L1261.58 487.184L1272.32 474.623ZM1260.38 485.775L1249.69 473.261H1271.07L1260.38 485.775ZM1271.12 501.152H1249.66L1260.38 488.614L1271.12 501.152ZM1248.55 499.607V474.76L1259.17 487.184L1248.55 499.607Z" fill="#B1B2B2"/>
<path d="M1245.44 440.487V471.626H1275.41V440.487H1245.44ZM1272.32 443.485V468.605L1261.58 456.045L1272.32 443.485ZM1260.38 454.637L1249.69 442.122H1271.07L1260.38 454.637ZM1271.12 470.013H1249.66L1260.38 457.476L1271.12 470.013ZM1248.55 468.469V443.598L1259.17 456.022L1248.55 468.446V468.469Z" fill="#B1B2B2"/>
<path d="M1245.44 409.347V440.486H1275.41V409.347H1245.44ZM1272.32 412.345V437.465L1261.58 424.905L1272.32 412.345ZM1260.38 423.497L1249.69 410.982H1271.07L1260.38 423.497ZM1271.12 438.874H1249.66L1260.38 426.336L1271.12 438.874ZM1248.55 437.352V412.481L1259.17 424.905L1248.55 437.329V437.352Z" fill="#B1B2B2"/>
<path d="M1245.44 378.207V409.347H1275.41V378.207H1245.44ZM1272.32 381.205V406.326L1261.58 393.766L1272.32 381.205ZM1260.38 392.357L1249.69 379.843H1271.07L1260.38 392.357ZM1271.12 407.734H1249.66L1260.38 395.196L1271.12 407.734ZM1248.55 406.212V381.342L1259.17 393.766L1248.55 406.189V406.212Z" fill="#B1B2B2"/>
<path d="M1245.44 347.068V378.208H1275.41V347.068H1245.44ZM1272.32 350.067V375.187L1261.58 362.627L1272.32 350.067ZM1260.38 361.219L1249.69 348.704H1271.07L1260.38 361.219ZM1271.12 376.595H1249.66L1260.38 364.058L1271.12 376.595ZM1248.55 375.073V350.203L1259.17 362.627L1248.55 375.051V375.073Z" fill="#B1B2B2"/>
<path d="M1245.44 315.929V347.068H1275.41V315.929H1245.44ZM1272.32 318.927V344.048L1261.58 331.487L1272.32 318.927ZM1260.38 330.079L1249.69 317.564H1271.07L1260.38 330.079ZM1271.12 345.456H1249.66L1260.38 332.918L1271.12 345.456ZM1248.55 343.934V319.064L1259.17 331.487L1248.55 343.911V343.934Z" fill="#B1B2B2"/>
<path d="M1245.44 284.79V315.93H1275.41V284.79H1245.44ZM1272.32 287.788V312.909L1261.58 300.349L1272.32 287.788ZM1260.38 298.94L1249.69 286.426H1271.07L1260.38 298.94ZM1271.12 314.317H1249.66L1260.38 301.779L1271.12 314.317ZM1248.55 312.795V287.925L1259.17 300.349L1248.55 312.772V312.795Z" fill="#B1B2B2"/>
<path d="M1245.44 253.651V284.79H1275.41V253.651H1245.44ZM1272.32 256.649V281.769L1261.58 269.209L1272.32 256.649ZM1260.38 267.801L1249.69 255.286H1271.07L1260.38 267.801ZM1271.12 283.177H1249.66L1260.38 270.64L1271.12 283.177ZM1248.55 281.656V256.785L1259.17 269.209L1248.55 281.633V281.656Z" fill="#B1B2B2"/>
<path d="M1275.29 531.142L1271.4 532.833L1286.05 566.607L1289.94 564.916L1275.29 531.142Z" fill="#B1B2B2"/>
<path d="M1245.56 531.333L1230.91 565.105L1234.8 566.796L1249.46 533.025L1245.56 531.333Z" fill="#B1B2B2"/>
<path d="M1275.41 565.043H1272.32V732.937H1275.41V565.043Z" fill="#B1B2B2"/>
<path d="M1248.53 565.043H1245.44V732.937H1248.53V565.043Z" fill="#B1B2B2"/>
<path d="M1330.73 722.148H1190.05V732.936H1330.73V722.148Z" fill="#B1B2B2"/>
<path d="M1329.3 732.913H1314.89V740.068H1329.3V732.913Z" fill="#B1B2B2"/>
<path d="M1205.89 732.913H1191.5V740.068H1205.89V732.913Z" fill="#B1B2B2"/>
<path d="M1300.47 732.913H1220.31V740.068H1300.47V732.913Z" fill="#B1B2B2"/>
<path d="M1325.9 717.174V718.991V722.148H1324.08V718.991H1314.16V722.148H1312.34V718.991H1302.4V722.148H1300.58V718.991H1290.66V722.148H1288.85V718.991H1278.93V722.148H1277.11V718.991H1267.17V722.148H1265.35V718.991H1255.43V722.148H1253.61V718.991H1243.69V722.148H1241.88V718.991H1231.95V722.148H1230.12V718.991H1220.2V722.148H1218.38V718.991H1208.46V722.148H1206.64V718.991H1196.72V722.148H1194.91V717.174H1325.9Z" fill="#B1B2B2"/>
<path d="M1260.4 209.247C1260.4 211.654 1262.35 213.607 1264.76 213.607C1267.17 213.607 1269.12 211.654 1269.12 209.247C1269.12 206.839 1267.17 204.886 1264.76 204.886C1262.35 204.886 1260.4 206.839 1260.4 209.247Z" fill="#B1B2B2"/>
<path d="M847.655 280.519C847.655 282.927 849.607 284.88 852.014 284.88C854.42 284.88 856.372 282.927 856.372 280.519C856.372 278.112 854.42 276.158 852.014 276.158C849.607 276.158 847.655 278.112 847.655 280.519Z" fill="#B1B2B2"/>
<path d="M1417.84 275.545L1265.53 206.725L1266.01 205.408L1418.32 274.228L1417.84 275.545Z" fill="#B1B2B2"/>
<path d="M1419.22 276.114L1264.35 209.769L1264.8 208.452L1419.68 274.796L1419.22 276.114Z" fill="#B1B2B2"/>
<path d="M1262.47 207.384L851.219 278.725L850.969 277.272L1262.22 205.953L1262.47 207.384Z" fill="#B1B2B2"/>
<path d="M1262.76 208.966L850.98 277.242L851.221 278.699L1263 210.422L1262.76 208.966Z" fill="#B1B2B2"/>
<path d="M1254.04 234.186V255.263H1275.41V234.186H1254.04ZM1257.13 238.024L1263.47 245.133L1257.13 252.242V238.024ZM1264.55 246.36L1271.03 253.628H1258.08L1264.55 246.36ZM1271.03 236.616L1264.55 243.884L1258.08 236.616H1271.05H1271.03ZM1272.32 252.606L1265.64 245.111L1272.32 237.615V252.606Z" fill="#B1B2B2"/>
<path d="M1254.04 214.743V235.821H1275.41V214.743H1254.04ZM1257.13 218.582L1263.47 225.691L1257.13 232.8V218.582ZM1264.55 226.917L1271.03 234.185H1258.08L1264.55 226.917ZM1271.03 217.173L1264.55 224.442L1258.08 217.173H1271.05H1271.03ZM1272.32 233.163L1265.64 225.668L1272.32 218.173V233.163Z" fill="#B1B2B2"/>
<path d="M1254.04 214.744V217.197H1275.41V214.744L1269.59 202.115H1259.86L1254.04 214.744ZM1272.02 214.744H1257.45L1262.13 204.568H1267.32L1272 214.744H1272.02Z" fill="#B1B2B2"/>
<path d="M1414.8 286.403H1372.87V322.607H1414.8V286.403Z" fill="#B1B2B2"/>
<path d="M1123.21 273.343H1102.51V309.07H1123.21V273.343Z" fill="#B1B2B2"/>
<path d="M1117.38 309.093H1115.61V440.577H1117.38V309.093ZM1106.84 309.093V440.577H1108.61V309.093H1106.84Z" fill="#B1B2B2"/>
<path d="M1106.84 434.876L1111 430.061H1113.2L1117.35 434.876V447.777L1113.2 452.592C1113.09 452.729 1113.02 452.842 1112.88 453.001C1111.63 454.591 1110.82 455.886 1110.43 456.862C1110.16 457.589 1110.11 458.271 1110.27 458.907C1110.41 459.452 1110.7 459.951 1111.11 460.36C1111.52 460.769 1112.04 461.064 1112.68 461.223C1113.31 461.382 1113.95 461.36 1114.56 461.223C1116.04 460.837 1117.08 459.474 1117.67 457.09L1119.53 457.635C1119.13 459.27 1118.51 460.519 1117.76 461.382C1116.99 462.245 1116.02 462.813 1114.88 463.108C1113.38 463.495 1112 463.313 1110.7 462.586C1109.41 461.837 1108.57 460.792 1108.23 459.406C1107.98 458.452 1108.05 457.43 1108.41 456.34C1108.75 455.273 1109.57 453.955 1110.82 452.411L1106.84 447.823V434.922V434.876Z" fill="#B1B2B2"/>
<path d="M839.8 275.341V286.403H1422.04V272.57L1275.43 253.628H1245.35L839.845 275.341H839.823H839.8ZM858.574 277.59L851.332 279.861L844.817 278.317L858.597 277.59H858.574ZM881.98 276.341L874.284 279.112L868.223 277.09L881.98 276.363V276.341ZM909.904 274.842L899.188 278.498L889.926 275.909L909.904 274.842ZM940.302 273.206L928.633 277.59L918.78 274.342L940.279 273.184L940.302 273.206ZM972.766 271.48L959.326 276.727L948.134 272.798L972.788 271.48H972.766ZM1003.98 269.799L990.927 276L980.076 271.071L1003.98 269.799ZM1033.65 268.21L1020.98 275.296L1010.18 269.481L1033.65 268.232V268.21ZM1062.3 266.688L1050.02 274.433L1039.17 267.914L1062.3 266.688ZM1092.84 265.052L1079.96 273.411L1068.57 266.347L1092.81 265.052H1092.84ZM1122.15 263.485L1109.98 272.707L1098.78 264.734L1122.17 263.485H1122.15ZM1151.43 261.918L1139.17 271.753L1127.75 263.19L1151.41 261.918H1151.43ZM1179.06 260.442L1167.57 271.003L1156.9 261.623L1179.06 260.442ZM1209.53 258.806L1196.74 270.231L1184.8 260.146L1209.53 258.829V258.806ZM1244.15 256.944L1229.23 269.481L1215.27 258.488L1244.15 256.944ZM1304.94 260.714L1291.8 270.276L1276.43 257.035L1304.94 260.714ZM1332.84 264.326L1322.33 271.98L1310.19 261.418L1332.84 264.348V264.326ZM1361.74 268.051L1351.19 274.138L1338.29 265.007L1361.74 268.028V268.051ZM1394.66 272.298L1383.63 276.159L1368.01 268.846L1394.66 272.298ZM1417.61 275.251L1410.44 277.953L1401.15 273.116L1417.61 275.251ZM1419.02 282.45L1412.23 278.907L1419.02 276.341V282.45ZM1401.06 283.132L1410.32 279.634L1417.04 283.132H1401.06ZM1399.68 274.069L1408.53 278.703L1399.68 282.042V274.069ZM1396.68 282.269L1385.6 277.09L1396.68 273.206V282.291V282.269ZM1368.39 283.132L1383.45 277.84L1394.75 283.132H1368.39ZM1366.08 269.709L1381.49 276.931L1366.08 282.36V269.731V269.709ZM1363.08 282.564L1352.55 275.114L1363.08 269.027V282.564ZM1338.65 283.132L1351.03 275.977L1361.13 283.132H1338.65ZM1337.02 266.075L1349.69 275.023L1337.02 282.337V266.075ZM1334.02 282.133L1323.51 272.979L1334.02 265.325V282.11V282.133ZM1309.55 283.155L1322.22 273.933L1332.82 283.155H1309.55ZM1308.87 262.327L1321.06 272.934L1308.87 281.792V262.327ZM1305.87 282.405L1293 271.321L1305.87 261.964V282.428V282.405ZM1276.7 283.155L1291.64 272.298L1304.24 283.155H1276.7ZM1246.33 283.155L1246.42 283.041L1230.43 270.458L1246.42 257.035L1246.3 256.899H1274.07L1273.93 257.058L1290.44 271.276L1274.23 283.064L1274.29 283.155H1246.3H1246.33ZM1215.34 283.155L1229.25 271.457L1244.12 283.155H1215.34ZM1213.97 259.42L1228.05 270.504L1213.97 282.337V259.442V259.42ZM1210.98 282.269L1197.92 271.208L1210.98 259.556V282.269ZM1184.55 283.155L1196.79 272.23L1209.68 283.155H1184.55ZM1183.46 260.987L1195.61 271.253L1183.46 282.087V260.964V260.987ZM1180.47 282.337L1168.71 272.003L1180.47 261.214V282.337ZM1156.58 283.155L1167.59 273.047L1179.1 283.155H1156.58ZM1155.77 262.645L1166.46 272.048L1155.77 281.86V262.645ZM1152.77 281.951L1140.44 272.707L1152.77 262.804V281.951ZM1127.41 283.155L1139.22 273.661L1151.86 283.155H1127.41ZM1126.62 264.212L1137.97 272.729L1126.62 281.837V264.212ZM1123.62 282.428L1111.27 273.638L1123.62 264.28V282.428ZM1098.69 283.155L1110 274.592L1122.03 283.155H1098.69ZM1097.47 265.666L1108.73 273.661L1097.47 282.178V265.643V265.666ZM1094.47 282.405L1081.39 274.297L1094.47 265.802V282.405ZM1067.77 283.155L1080.01 275.205L1092.84 283.155H1067.8H1067.77ZM1066.87 267.074L1078.58 274.342L1066.87 281.951V267.074ZM1063.87 282.768L1051.47 275.319L1063.87 267.505V282.768ZM1039.08 283.155L1050.04 276.227L1061.58 283.155H1039.06H1039.08ZM1037.72 268.823L1048.59 275.341L1037.72 282.201V268.8V268.823ZM1034.72 282.7L1022.55 276.159L1034.72 269.368V282.7ZM1010.02 283.155L1020.98 277.022L1032.36 283.155H1010.02ZM1008.45 270.276L1019.4 276.182L1008.45 282.291V270.276ZM1005.46 282.609L992.698 276.818L1005.46 270.753V282.587V282.609ZM979.417 283.155L990.927 277.681L1002.98 283.155H979.417ZM977.851 271.753L989.111 276.863L977.851 282.223V271.753ZM974.854 282.178L961.483 277.499L974.854 272.275V282.178ZM946.953 283.155L959.303 278.339L973.061 283.155H946.953ZM945.796 273.615L957.101 277.567L945.796 281.974V273.615ZM942.799 282.291L930.903 278.385L942.799 273.91V282.314V282.291ZM918.213 283.155L928.656 279.225L940.597 283.155H918.213ZM916.646 275.273L926.363 278.476L916.646 282.133V275.273ZM913.65 282.564L901.731 279.225L913.65 275.16V282.564ZM890.198 283.177L899.188 280.111L910.176 283.177H890.198ZM887.497 276.84L896.623 279.384L887.497 282.496V276.84ZM884.5 282.564L876.554 279.907L884.5 277.068V282.564ZM867.428 283.177L874.261 280.724L881.594 283.177H867.428ZM865.612 277.84L871.923 279.952L865.612 282.223V277.84ZM862.615 282.564L854.147 280.565L862.615 277.908V282.564ZM845.839 283.177L851.31 281.451L858.574 283.177H845.816H845.839ZM842.456 279.362L848.427 280.77L842.456 282.632V279.339V279.362Z" fill="#B1B2B2"/>
<path d="M1221.33 300.235V322.788H1277.7V279.271H1241.65V287.674H1233.91L1221.35 300.235H1221.33ZM1224.26 308.161V301.438L1235.09 290.604H1241.63V308.161H1224.26Z" fill="#B1B2B2"/>
<path d="M426.94 422.429L474.433 415.751L437.588 552.073L390.072 558.751L426.94 422.429Z" fill="#00A351"/>
<path d="M475.477 593.16L522.993 586.482L399.471 625.617L351.956 632.294L475.477 593.16Z" fill="#00A351"/>
<path d="M455.068 306.752L502.584 300.074L562.948 512.371L515.456 519.049L455.068 306.752Z" fill="#00A351"/>
<path d="M550.621 642.765L598.137 636.088L542.131 653.826L494.638 660.504L550.621 642.765Z" fill="#00A351"/>
<path d="M531.483 575.422L578.999 568.744L598.137 636.088L550.621 642.765L531.483 575.422Z" fill="#00A351"/>
<path d="M552.914 507.17L600.429 500.492L616.457 556.888L568.964 563.566L552.914 507.17Z" fill="#00A351"/>
<path d="M568.964 563.565L616.457 556.888L578.999 568.744L531.483 575.421L568.964 563.565Z" fill="#00A351"/>
<path d="M568.964 563.566L531.483 575.444L550.621 642.765L494.615 660.504L475.477 593.16L351.956 632.317L335.996 576.171L406.486 322.174L455.068 306.774L515.433 519.049L552.914 507.17L568.942 563.566H568.964ZM390.095 558.773L459.472 536.787L426.963 422.428L390.118 558.75" fill="white"/>
<path d="M715.46 439.532H772.215C765.223 439.532 758.98 442.099 753.486 447.255C747.992 452.41 743.747 461.655 740.728 474.964C736.755 492.226 734.757 521.321 734.757 562.227C734.757 603.133 736.55 631.228 740.115 646.537C743.679 661.823 748.174 672.021 753.6 677.086C759.026 682.151 765.223 684.694 772.215 684.694H715.46C708.468 684.694 702.27 682.151 696.845 677.086C691.419 672.021 686.924 661.823 683.36 646.537C679.795 631.251 678.002 603.133 678.002 562.227C678.002 521.321 680 492.226 683.973 474.964C686.969 461.632 691.237 452.388 696.731 447.255C702.225 442.121 708.468 439.532 715.46 439.532Z" fill="#00A351"/>
<mask id="mask0_1_3" style="mask-type:luminance" maskUnits="userSpaceOnUse" x="678" y="439" width="95" height="246">
<path d="M715.46 439.532H772.215C765.223 439.532 758.98 442.099 753.486 447.255C747.992 452.41 743.747 461.655 740.728 474.964C736.755 492.226 734.757 521.321 734.757 562.227C734.757 603.133 736.55 631.228 740.115 646.537C743.679 661.823 748.174 672.021 753.6 677.086C759.026 682.151 765.223 684.694 772.215 684.694H715.46C708.468 684.694 702.27 682.151 696.845 677.086C691.419 672.021 686.924 661.823 683.36 646.537C679.795 631.251 678.002 603.133 678.002 562.227C678.002 521.321 680 492.226 683.973 474.964C686.969 461.632 691.237 452.388 696.731 447.255C702.225 442.121 708.468 439.532 715.46 439.532Z" fill="white"/>
</mask>
<g mask="url(#mask0_1_3)">
<path d="M715.46 439.532H772.215C765.586 439.532 759.638 441.849 754.372 446.46H697.616C702.883 441.826 708.854 439.532 715.46 439.532Z" fill="#00A351"/>
<path d="M697.617 446.46H754.372C754.077 446.71 753.781 446.982 753.509 447.255C753.123 447.618 752.737 448.027 752.351 448.436H695.596C695.982 448.027 696.368 447.641 696.754 447.255C697.049 446.982 697.344 446.71 697.617 446.46Z" fill="#00A351"/>
<path d="M695.573 448.436H752.328C751.852 448.958 751.375 449.503 750.921 450.094H694.166C694.62 449.503 695.097 448.958 695.573 448.436Z" fill="#00A351"/>
<path d="M694.166 450.094H750.921C750.49 450.661 750.058 451.229 749.627 451.865H692.872C693.28 451.252 693.712 450.661 694.166 450.094Z" fill="#00A351"/>
<path d="M692.872 451.865H749.627C749.218 452.479 748.81 453.137 748.401 453.796H691.646C692.054 453.114 692.463 452.479 692.872 451.865Z" fill="#00A351"/>
<path d="M691.646 453.796H748.401C747.992 454.5 747.584 455.227 747.198 455.976H690.443C690.829 455.204 691.237 454.477 691.646 453.796Z" fill="#00A351"/>
<path d="M690.443 455.999H747.198C746.789 456.817 746.381 457.657 745.972 458.52H689.217C689.603 457.634 690.011 456.794 690.443 455.999Z" fill="#00A351"/>
<path d="M689.217 458.521H745.972C745.541 459.474 745.132 460.474 744.723 461.519H687.968C688.377 460.474 688.786 459.474 689.217 458.521Z" fill="#00A351"/>
<path d="M687.968 461.519H744.723C744.269 462.677 743.838 463.903 743.429 465.175H686.674C687.083 463.903 687.537 462.7 687.968 461.519Z" fill="#00A351"/>
<path d="M686.674 465.175H743.429C742.952 466.629 742.498 468.15 742.044 469.74H685.289C685.721 468.15 686.175 466.629 686.674 465.175Z" fill="#00A351"/>
<path d="M685.289 469.74H742.044C741.59 471.421 741.159 473.17 740.728 474.987C740.682 475.214 740.614 475.441 740.569 475.668H683.814C683.859 475.441 683.927 475.214 683.973 474.987C684.381 473.17 684.813 471.421 685.289 469.74Z" fill="#00A351"/>
<path d="M683.836 475.668H740.592C740.092 477.939 739.615 480.415 739.161 483.072H682.406C682.838 480.415 683.314 477.939 683.836 475.668Z" fill="#00A351"/>
<path d="M682.406 483.072H739.161C738.571 486.706 738.026 490.681 737.55 495.042H680.794C681.271 490.681 681.816 486.684 682.406 483.072Z" fill="#00A351"/>
<path d="M680.794 495.042H737.549C736.777 502.038 736.164 509.964 735.733 518.845H678.978C679.432 509.964 680.045 502.038 680.794 495.042Z" fill="#00A351"/>
<path d="M678.955 518.846H735.711C735.075 531.429 734.757 545.897 734.757 562.25C734.757 568.405 734.802 574.288 734.871 579.852H678.115C678.025 574.265 678.002 568.405 678.002 562.25C678.002 545.897 678.32 531.429 678.955 518.846Z" fill="#00A351"/>
<path d="M678.138 579.852H734.893C735.143 597.772 735.824 612.717 736.936 624.641H680.181C679.092 612.717 678.411 597.772 678.138 579.852Z" fill="#00A351"/>
<path d="M680.159 624.642H736.914C737.617 632.296 738.503 638.701 739.547 643.879H682.792C681.748 638.701 680.862 632.296 680.159 624.642Z" fill="#00A351"/>
<path d="M682.792 643.88H739.547C739.729 644.811 739.933 645.697 740.115 646.537C742.521 656.872 745.359 664.867 748.605 670.545H691.85C688.581 664.867 685.766 656.872 683.36 646.537C683.155 645.697 682.974 644.811 682.792 643.88Z" fill="#00A351"/>
<path d="M691.873 670.567H748.628C749.355 671.817 750.081 672.952 750.853 673.974H694.098C693.326 672.952 692.6 671.817 691.873 670.567Z" fill="#00A351"/>
<path d="M694.075 673.974H750.83C751.307 674.61 751.761 675.177 752.261 675.723H695.505C695.029 675.177 694.552 674.587 694.075 673.974Z" fill="#00A351"/>
<path d="M695.505 675.723H752.26C752.624 676.132 752.987 676.518 753.373 676.881H696.618C696.254 676.518 695.868 676.132 695.505 675.723Z" fill="#00A351"/>
<path d="M696.618 676.881H753.373C753.373 676.881 753.532 677.04 753.623 677.108C754.077 677.517 754.508 677.926 754.985 678.312H698.23C697.776 677.926 697.321 677.54 696.867 677.108C696.777 677.04 696.708 676.949 696.618 676.881Z" fill="#00A351"/>
<path d="M698.207 678.312H754.962C755.484 678.744 756.029 679.176 756.551 679.562H699.796C699.251 679.176 698.729 678.744 698.207 678.312Z" fill="#00A351"/>
<path d="M699.796 679.562H756.551C757.05 679.925 757.55 680.266 758.072 680.606H701.317C700.795 680.288 700.295 679.925 699.796 679.562Z" fill="#00A351"/>
<path d="M701.317 680.606H758.072C758.549 680.924 759.048 681.22 759.548 681.492H702.793C702.293 681.22 701.794 680.924 701.317 680.606Z" fill="#00A351"/>
<path d="M702.792 681.492H759.548C760.024 681.765 760.524 682.015 761.023 682.242H704.268C703.769 682.015 703.292 681.765 702.792 681.492Z" fill="#00A351"/>
<path d="M704.268 682.241H761.023C761.523 682.469 762.022 682.696 762.522 682.9H705.767C705.267 682.696 704.768 682.491 704.268 682.241Z" fill="#00A351"/>
<path d="M705.767 682.877H762.522C763.021 683.081 763.543 683.263 764.066 683.445H707.31C706.788 683.286 706.289 683.081 705.767 682.877Z" fill="#00A351"/>
<path d="M707.288 683.445H764.043C764.588 683.627 765.11 683.786 765.677 683.922H708.922C708.377 683.786 707.832 683.627 707.288 683.445Z" fill="#00A351"/>
<path d="M708.922 683.922H765.677C766.245 684.058 766.835 684.194 767.425 684.308H710.67C710.08 684.194 709.489 684.081 708.922 683.922Z" fill="#00A351"/>
<path d="M710.67 684.285H767.425C768.061 684.399 768.719 684.49 769.377 684.558H712.622C711.964 684.49 711.306 684.399 710.67 684.285Z" fill="#00A351"/>
<path d="M712.623 684.559H769.378C770.127 684.627 770.876 684.672 771.648 684.695H714.893C714.121 684.695 713.372 684.627 712.623 684.559Z" fill="#00A351"/>
</g>
<path d="M715.46 384.136H772.216C801.456 384.136 824.317 396.174 840.753 420.272H783.998C767.539 396.174 744.678 384.136 715.46 384.136Z" fill="#00A351"/>
<mask id="mask1_1_3" style="mask-type:luminance" maskUnits="userSpaceOnUse" x="715" y="384" width="126" height="37">
<path d="M715.46 384.136H772.216C801.456 384.136 824.317 396.174 840.753 420.272H783.998C767.539 396.174 744.678 384.136 715.46 384.136Z" fill="white"/>
</mask>
<g mask="url(#mask1_1_3)">
<path d="M717.572 384.158H774.327C777.051 384.204 779.73 384.385 782.341 384.635H725.586C722.975 384.363 720.296 384.204 717.572 384.158Z" fill="#00A351"/>
<path d="M725.585 384.636H782.341C784.588 384.863 786.79 385.181 788.947 385.567H732.192C730.035 385.181 727.833 384.863 725.585 384.636Z" fill="#00A351"/>
<path d="M732.192 385.566H788.947C790.854 385.907 792.738 386.316 794.577 386.77H737.822C735.983 386.293 734.099 385.907 732.192 385.566Z" fill="#00A351"/>
<path d="M737.822 386.793H794.577C796.28 387.225 797.96 387.702 799.617 388.247H742.862C741.205 387.702 739.525 387.225 737.822 386.793Z" fill="#00A351"/>
<path d="M742.862 388.247H799.617C801.183 388.747 802.727 389.315 804.225 389.905H747.47C745.949 389.292 744.428 388.747 742.862 388.247Z" fill="#00A351"/>
<path d="M747.47 389.905H804.225C805.678 390.496 807.109 391.109 808.516 391.768H751.761C750.353 391.109 748.923 390.473 747.47 389.905Z" fill="#00A351"/>
<path d="M751.761 391.79H808.516C809.901 392.449 811.263 393.153 812.602 393.902H755.847C754.508 393.153 753.146 392.449 751.761 391.79Z" fill="#00A351"/>
<path d="M755.87 393.88H812.625C813.965 394.629 815.304 395.424 816.598 396.242H759.843C758.549 395.402 757.21 394.629 755.87 393.88Z" fill="#00A351"/>
<path d="M759.843 396.264H816.598C817.937 397.128 819.254 398.013 820.525 398.967H763.77C762.476 398.013 761.182 397.128 759.843 396.264Z" fill="#00A351"/>
<path d="M763.77 398.945H820.525C821.888 399.944 823.204 400.989 824.498 402.079H767.743C766.449 400.989 765.11 399.944 763.77 398.945Z" fill="#00A351"/>
<path d="M767.743 402.079H824.498C825.929 403.26 827.313 404.532 828.676 405.826H771.92C770.558 404.509 769.173 403.26 767.743 402.079Z" fill="#00A351"/>
<path d="M771.92 405.826H828.676C830.197 407.303 831.695 408.847 833.148 410.482H776.393C774.94 408.847 773.464 407.303 771.92 405.826Z" fill="#00A351"/>
<path d="M776.393 410.483H833.148C834.941 412.481 836.667 414.616 838.324 416.842H781.569C779.912 414.616 778.186 412.481 776.393 410.483Z" fill="#00A351"/>
<path d="M781.569 416.842H838.324C839.164 417.955 839.981 419.09 840.776 420.271H784.021C783.226 419.09 782.409 417.955 781.569 416.842Z" fill="#00A351"/>
</g>
<path d="M784.021 420.271H840.776C860.39 448.799 870.22 496.132 870.22 562.227C870.22 628.321 860.322 675.563 840.571 704.431C824.249 728.212 801.456 740.091 772.216 740.091H715.46C744.701 740.091 767.494 728.212 783.816 704.431C803.567 675.563 813.465 628.162 813.465 562.227C813.465 496.291 803.635 448.799 784.021 420.271Z" fill="#00A351"/>
<mask id="mask2_1_3" style="mask-type:luminance" maskUnits="userSpaceOnUse" x="715" y="420" width="156" height="321">
<path d="M784.021 420.271H840.776C860.39 448.799 870.22 496.132 870.22 562.227C870.22 628.321 860.322 675.563 840.571 704.431C824.249 728.212 801.456 740.091 772.216 740.091H715.46C744.701 740.091 767.494 728.212 783.816 704.431C803.567 675.563 813.465 628.162 813.465 562.227C813.465 496.291 803.635 448.799 784.021 420.271Z" fill="white"/>
</mask>
<g mask="url(#mask2_1_3)">
<path d="M784.021 420.271H840.776C842.319 422.52 843.818 424.905 845.248 427.38H788.493C787.063 424.882 785.564 422.52 784.021 420.271Z" fill="#00A351"/>
<path d="M788.493 427.403H845.248C853.012 440.94 858.983 457.975 863.115 478.462H806.359C802.205 457.975 796.257 440.94 788.493 427.403Z" fill="#00A351"/>
<path d="M806.359 478.462H863.115C865.317 489.296 866.997 501.106 868.177 513.894H811.422C810.241 501.106 808.562 489.296 806.359 478.462Z" fill="#00A351"/>
<path d="M811.422 513.894H868.177C869.289 526.045 869.948 539.059 870.152 552.937H813.397C813.193 539.037 812.534 526.022 811.422 513.894Z" fill="#00A351"/>
<path d="M813.397 552.936H870.152C870.198 556.003 870.22 559.092 870.22 562.249C870.22 572.424 869.993 582.168 869.517 591.457H812.761C813.238 582.168 813.465 572.424 813.465 562.249C813.465 559.114 813.465 556.003 813.397 552.936Z" fill="#00A351"/>
<path d="M812.761 591.458H869.517C869.062 600.452 868.381 609.038 867.496 617.191H810.741C811.626 609.015 812.307 600.452 812.761 591.458Z" fill="#00A351"/>
<path d="M810.718 617.191H867.473C866.77 623.619 865.93 629.797 864.953 635.725H808.198C809.174 629.797 810.014 623.619 810.718 617.191Z" fill="#00A351"/>
<path d="M808.198 635.725H864.953C864.136 640.677 863.228 645.424 862.207 650.012H805.451C806.45 645.424 807.381 640.654 808.198 635.725Z" fill="#00A351"/>
<path d="M805.451 650.012H862.206C861.321 653.986 860.39 657.825 859.369 661.55H802.614C803.635 657.847 804.589 654.009 805.451 650.012Z" fill="#00A351"/>
<path d="M802.614 661.527H859.369C858.461 664.798 857.507 667.978 856.508 671.044H799.753C800.775 667.978 801.728 664.798 802.614 661.527Z" fill="#00A351"/>
<path d="M799.753 671.066H856.508C855.577 673.883 854.601 676.631 853.557 679.288H796.802C797.823 676.631 798.8 673.905 799.753 671.066Z" fill="#00A351"/>
<path d="M796.802 679.266H853.557C852.603 681.719 851.605 684.103 850.583 686.397H793.828C794.872 684.103 795.848 681.719 796.802 679.266Z" fill="#00A351"/>
<path d="M793.828 686.397H850.583C849.584 688.601 848.563 690.736 847.496 692.802H790.74C791.807 690.736 792.829 688.601 793.828 686.397Z" fill="#00A351"/>
<path d="M790.74 692.825H847.496C846.451 694.847 845.362 696.8 844.249 698.685H787.494C788.606 696.8 789.696 694.847 790.74 692.825Z" fill="#00A351"/>
<path d="M787.494 698.685H844.249C843.16 700.525 842.024 702.297 840.867 704.023H784.112C785.269 702.32 786.404 700.525 787.494 698.685Z" fill="#00A351"/>
<path d="M784.134 704H840.889C840.798 704.159 840.685 704.295 840.594 704.454C839.391 706.203 838.142 707.906 836.871 709.519H780.116C781.387 707.884 782.636 706.203 783.839 704.454C783.93 704.295 784.043 704.159 784.134 704Z" fill="#00A351"/>
<path d="M780.093 709.519H836.849C835.327 711.473 833.738 713.313 832.126 715.084H775.371C777.006 713.335 778.572 711.473 780.093 709.519Z" fill="#00A351"/>
<path d="M775.371 715.084H832.126C830.128 717.241 828.063 719.24 825.929 721.125H769.174C771.308 719.24 773.373 717.241 775.371 715.084Z" fill="#00A351"/>
<path d="M769.174 721.125H825.929C811.467 733.776 793.555 740.113 772.238 740.113H715.483C736.823 740.113 754.712 733.799 769.174 721.125Z" fill="#00A351"/>
</g>
<path d="M784.021 420.271C803.635 448.799 813.465 496.132 813.465 562.227C813.465 628.321 803.567 675.563 783.816 704.431C767.494 728.212 744.701 740.091 715.461 740.091C686.107 740.091 662.429 727.076 644.449 700.979C626.469 674.905 617.479 628.412 617.479 561.5C617.479 494.588 627.354 448.617 647.127 419.772C663.45 395.969 686.243 384.09 715.461 384.09C744.678 384.09 767.562 396.128 783.998 420.226L784.021 420.271ZM746.971 649.285C750.944 632.159 752.942 603.155 752.942 562.249C752.942 521.343 751.148 493.248 747.584 477.939C744.02 462.653 739.525 452.41 734.099 447.254C728.673 442.098 722.475 439.532 715.461 439.532C708.446 439.532 702.225 442.098 696.731 447.254C691.237 452.41 686.992 461.654 683.973 474.964C680 492.226 678.002 521.321 678.002 562.227C678.002 603.132 679.796 631.228 683.36 646.536C686.924 661.822 691.419 672.02 696.845 677.085C702.271 682.15 708.468 684.694 715.461 684.694C722.453 684.694 728.719 682.127 734.19 676.972C739.661 671.816 743.929 662.572 746.948 649.285" fill="white"/>
<path d="M967.249 491.681H1024L954.65 610.809H897.895L967.249 491.681Z" fill="#00A351"/>
<path d="M1079.99 669.567H1023.23V739.705H1079.99V669.567Z" fill="#00A351"/>
<g opacity="0.95">
<path d="M1079.99 389.678H1023.23V610.81H1079.99V389.678Z" fill="#00A351"/>
</g>
<path d="M1117.47 610.81H1060.71V669.568H1117.47V610.81Z" fill="#00A351"/>
<path d="M1023.23 610.81H1060.71V669.568H1023.23V739.705H967.249V669.568H843.75V611.06L974.673 389.678H1023.26V610.81H1023.23ZM967.249 610.81V491.681L897.894 610.81H967.249Z" fill="white"/>
</g>
<defs>
<clipPath id="clip0_1_3">
<rect width="1440" height="739.677" fill="white"/>
</clipPath>
</defs>
</svg>
